<?xml version="1.0" encoding="utf-8"?>
<!-- Generator: Adobe Illustrator 25.4.1, SVG Export Plug-In . SVG Version: 6.00 Build 0)  -->
<svg version="1.1" id="Layer_1" xmlns="http://www.w3.org/2000/svg" xmlns:xlink="http://www.w3.org/1999/xlink" x="0px" y="0px"
	 viewBox="0 0 1070 680" style="enable-background:new 0 0 1070 680;" xml:space="preserve">
<style type="text/css">
	.st0{fill:#FFFFFF;}
</style>
<path class="st0" d="M1005.7,333.7h-19.5V256c0-26.8-20.8-45.5-50.6-45.5S885,229.2,885,256v77.7h-73.4l131.3-189.6
	c10.3-14.8,10.4-27.9,8.7-36.3c-2.4-12-10.3-22.7-22.1-30.2l-0.1-0.1c-10.5-6.5-22.5-9.1-33.7-7.4c-12.5,1.9-23.5,9-31.1,20.1
	L702.4,324.6c0.4-7.6,0.6-15.4,0.6-23.4v-24.3c0-66.6-13.1-118.1-38.9-153.1c-27.9-37.8-70.5-57-126.5-57S439,86,411.1,123.8
	c-25.8,35-38.9,86.5-38.9,153.1v24.3c0,11.9,0.4,23.3,1.3,34.2c-3.8-1.1-7.9-1.7-12.3-1.7h-19.5V256c0-26.8-20.8-45.5-50.6-45.5
	s-50.6,18.7-50.6,45.5v77.7H167l131.3-189.6c10.3-14.8,10.4-27.9,8.7-36.3c-2.4-12-10.3-22.7-22.1-30.2l-0.1-0.1
	c-10.5-6.5-22.5-9.1-33.7-7.4c-12.5,1.9-23.5,9-31.1,20.1L57.6,324.9c-17.3,25-20.2,34.7-20.2,47c0,22.8,10.4,50.1,59.7,50.1h143.3
	v41c0,26.8,20.8,45.5,50.6,45.5s50.6-18.7,50.6-45.5v-41h19.5c10.9,0,20.4-3.8,27.4-10.8c5.9,16.4,13.4,30.8,22.6,43.1
	c27.9,37.8,70.5,57,126.5,57s98.6-19.2,126.5-57c10.9-14.8,19.6-32.6,25.9-53.2c8.1,11.9,23.5,20.8,51.7,20.8H885v41
	c0,26.8,20.8,45.5,50.6,45.5s50.6-18.7,50.6-45.5v-41h19.5c12.9,0,23.8-5.3,30.8-14.8c5.6-7.6,8.5-17.6,8.5-29
	C1045,351.1,1029.6,333.7,1005.7,333.7z M537.5,412.9c-24.2,0-38.5-7-47.7-23.3c-10.1-17.8-14.7-47.5-14.7-93.5V282
	c0-46,4.7-75.7,14.7-93.5c9.2-16.3,23.5-23.3,47.7-23.3c24.2,0,38.5,7,47.7,23.3C595.3,206.3,600,236,600,282v14.1
	c0,46-4.7,75.7-14.7,93.5C576.1,405.9,561.8,412.9,537.5,412.9z"/>
<g>
	<path class="st0" d="M240.4,563.3c12.1,0,17.3,6.2,17.3,14.4v1c0,8.2-5.6,15.2-17.3,15.2h-10.1v15.8c0,2.7-2.1,3.9-4.5,3.9
		c-2.4,0-4.5-1.2-4.5-3.9v-40.5c0-4.4,1.5-5.8,6-5.8H240.4z M230.4,586.3h8.9c5.9,0,9.5-1.9,9.5-7.8v-0.8c0-5.5-3.6-7-8.7-7h-9.7
		V586.3z"/>
	<path class="st0" d="M289.5,567l15.8,40.6c1,2.7-0.2,4.8-2.5,5.5c-2.3,0.7-4.9,0.5-6-2.5l-4.1-11.2h-17.6l-4.1,11.5
		c-1,2.7-3.4,3-5.6,2.2s-3.4-2.6-2.5-5.2l15.8-41c1.2-3.2,3.1-4.1,5.4-4.1C286.4,562.8,288.3,563.8,289.5,567z M281.5,581.8
		l-3.7,10.2h12.3l-3.6-10.2c-1.2-3.3-1.8-5.3-2.5-7.8C283.1,576.8,282.6,578.6,281.5,581.8z"/>
	<path class="st0" d="M351.4,566.3c2.1,1.5,2.2,3.9,0.9,5.7s-3.4,2.4-5.2,1.3c-2.7-1.7-6-2.7-10.2-2.7c-9.4,0-13.4,3.9-13.4,16.8
		v1.5c0,12.9,3.9,16.8,13.9,16.8c3.4,0,5.8-0.4,8.4-1.5v-11.7h-7.8c-2.2,0-3.2-1.8-3.2-3.8c0-2,1-3.7,3.2-3.7h10.8
		c4.5,0,6,1.4,6,5.8v13.9c0,3.6-1.1,5.3-4.1,6.6c-3.7,1.5-8.7,2.5-13.5,2.5c-14.6,0-22.6-6.5-22.6-24.2v-2.9
		c0-17.7,8-24.2,22.5-24.2C343.5,562.5,348.1,564,351.4,566.3z"/>
	<path class="st0" d="M397.7,563.3c2.1,0,3.1,1.7,3.1,3.7c0,2-1,3.7-3.1,3.7h-20.9v13.2h19.5c2,0,3,1.7,3,3.6s-1,3.6-3,3.6h-19.5
		v14.4h21.4c2.1,0,3.1,1.8,3.1,3.7c0,2-1,3.7-3.1,3.7h-24.4c-4.5,0-6-1.4-6-5.8v-38.2c0-4.4,1.5-5.8,6-5.8H397.7z"/>
	<path class="st0" d="M474,566.5v40.9c0,4.4-1.5,5.8-6,5.8c-3.4,0-4.8-0.7-8.3-7.1l-13.2-23.7c-1.4-2.5-2.5-4.9-3.4-8.1v35.4
		c0,2.5-2,3.6-4.1,3.6c-2.1,0-4.1-1.1-4.1-3.6v-40.9c0-4.4,1.5-5.8,6-5.8c3.4,0,4.8,0.8,8.3,7.1l13.2,23.7c1.4,2.5,2.5,4.9,3.4,8.1
		v-35.4c0-2.5,2-3.6,4.1-3.6S474,564,474,566.5z"/>
	<path class="st0" d="M529.8,586.7v2.9c0,17-7.8,24.2-21.4,24.2s-21.4-7.2-21.4-24.2v-2.9c0-17,7.8-24.2,21.4-24.2
		S529.8,569.7,529.8,586.7z M496,587.4v1.5c0,12.7,4.2,16.7,12.4,16.7s12.4-4.1,12.4-16.7v-1.5c0-12.7-4.2-16.7-12.4-16.7
		S496,574.7,496,587.4z"/>
	<path class="st0" d="M573.1,563.3c2.2,0,3.2,1.8,3.2,3.8s-1,3.8-3.2,3.8h-12v38.8c0,2.7-2.1,3.9-4.5,3.9c-2.4,0-4.5-1.2-4.5-3.9
		v-38.8H540c-2.2,0-3.2-1.8-3.2-3.8s1-3.8,3.2-3.8H573.1z"/>
	<path class="st0" d="M636.4,563.3c2.2,0,3.2,1.8,3.2,3.8s-1,3.8-3.2,3.8h-20.8v14.1H635c2.2,0,3.2,1.8,3.2,3.8s-1,3.8-3.2,3.8
		h-19.3v17.2c0,2.7-2.1,3.9-4.5,3.9s-4.5-1.2-4.5-3.9v-40.5c0-4.4,1.5-5.8,6-5.8H636.4z"/>
	<path class="st0" d="M691.8,586.7v2.9c0,17-7.8,24.2-21.4,24.2c-13.6,0-21.4-7.2-21.4-24.2v-2.9c0-17,7.8-24.2,21.4-24.2
		C684,562.5,691.8,569.7,691.8,586.7z M658,587.4v1.5c0,12.7,4.2,16.7,12.4,16.7c8.2,0,12.4-4.1,12.4-16.7v-1.5
		c0-12.7-4.2-16.7-12.4-16.7C662.2,570.7,658,574.7,658,587.4z"/>
	<path class="st0" d="M712.8,566.7v25.7c0,9.9,3.3,13.3,10.6,13.3c7.3,0,10.6-3.4,10.6-13.3v-25.7c0-2.7,2.1-3.9,4.5-3.9
		s4.5,1.2,4.5,3.9v25.6c0,16.5-6.9,21.6-19.6,21.6c-12.6,0-19.6-5-19.6-21.6v-25.6c0-2.7,2.1-3.9,4.5-3.9
		C710.7,562.8,712.8,564,712.8,566.7z"/>
	<path class="st0" d="M796.1,566.5v40.9c0,4.4-1.5,5.8-6,5.8c-3.4,0-4.8-0.7-8.3-7.1l-13.2-23.7c-1.4-2.5-2.5-4.9-3.4-8.1v35.4
		c0,2.5-2,3.6-4.1,3.6s-4.1-1.1-4.1-3.6v-40.9c0-4.4,1.5-5.8,6-5.8c3.4,0,4.8,0.8,8.3,7.1l13.2,23.7c1.4,2.5,2.5,4.9,3.4,8.1v-35.4
		c0-2.5,2-3.6,4.1-3.6S796.1,564,796.1,566.5z"/>
	<path class="st0" d="M828.4,563.3c14.5,0,22.1,6.7,22.1,23.6v2.6c0,16.9-7.6,23.6-22.1,23.6h-11.6c-4.5,0-5.9-1.4-5.9-5.8v-38.2
		c0-4.4,1.5-5.8,5.9-5.8H828.4z M819.8,605.5h7.4c10.2,0,14.2-4.1,14.2-16.7v-1.2c0-12.6-4-16.7-14.2-16.7h-7.4V605.5z"/>
</g>
</svg>
