<?xml version="1.0" encoding="utf-8"?>
<!-- Generator: Adobe Illustrator 25.4.1, SVG Export Plug-In . SVG Version: 6.00 Build 0)  -->
<svg version="1.1" id="Layer_1" xmlns="http://www.w3.org/2000/svg" xmlns:xlink="http://www.w3.org/1999/xlink" x="0px" y="0px"
	 viewBox="0 0 1070 680" style="enable-background:new 0 0 1070 680;" xml:space="preserve">
<style type="text/css">
	.st0{fill:#FFFFFF;}
</style>
<path class="st0" d="M986.3,123.8c-27.9-37.8-70.5-57-126.5-57c-56,0-98.6,19.2-126.5,57c-17.3,23.4-28.9,54.3-34.6,92.2
	c-5.8-37.9-17.3-68.8-34.6-92.2c-27.9-37.8-70.5-57-126.5-57c-56,0-98.6,19.2-126.5,57c-25.8,35-38.9,86.5-38.9,153.1v24.3
	c0,4.9,0.1,9.6,0.2,14.3c-5.6-21.7-15.9-41.4-30.2-57.4c-25-27.9-60.1-42.6-101.4-42.6c-24.9,0-44.5,4.9-59.6,11l2.8-62.4h129.3
	c24.2,0,40.4-18.3,40.4-45.5c0-27.2-16.3-45.5-40.4-45.5H149.7c-17.6,0-35.5,1.7-47.7,14.3c-11,11.4-14.1,27.8-15.3,49.1l-9,162.8
	l0,0.3c-0.4,10.7,3,20.2,10,27.4c7.9,8.2,19.4,12.5,33.3,12.5c16.7,0,26-5.1,39.3-15.7l0.2-0.2c15-12.5,35.8-19.7,57.1-19.7
	c18.7,0,33,4.6,42.6,13.5c9.4,8.8,14.2,22,14.2,39.3v3.4c0,46-31.8,55.7-58.5,55.7c-33,0-56.2-5.8-79.9-19.9
	c-24-14.4-49.8-8-64.1,15.8c-14.7,24.2-8.7,52.5,14.3,67.3c34.1,22.1,75.5,32.4,130.3,32.4c51.5,0,94-16.7,122.8-48.4
	c23.2-25.5,36.6-59.4,37.9-96.2c6,35.8,17.3,65.1,33.9,87.5c27.9,37.8,70.5,57,126.5,57c56,0,98.6-19.2,126.5-57
	c17.3-23.4,28.9-54.3,34.6-92.2c5.8,37.9,17.3,68.8,34.6,92.2c27.9,37.8,70.5,57,126.5,57c56,0,98.6-19.2,126.5-57
	c25.8-35,38.9-86.5,38.9-153.1v-24.3C1025.2,210.3,1012.1,158.8,986.3,123.8z M859.8,412.9c-24.2,0-38.5-7-47.7-23.3
	c-10.1-17.8-14.7-47.5-14.7-93.5V282c0-46,4.7-75.7,14.7-93.5c9.2-16.3,23.5-23.3,47.7-23.3s38.5,7,47.7,23.3
	c10.1,17.8,14.7,47.5,14.7,93.5v14.1c0,46-4.7,75.7-14.7,93.5C898.3,405.9,884.1,412.9,859.8,412.9z M537.5,412.9
	c-24.2,0-38.5-7-47.7-23.3c-10.1-17.8-14.7-47.5-14.7-93.5V282c0-46,4.7-75.7,14.7-93.5c9.2-16.3,23.5-23.3,47.7-23.3
	s38.5,7,47.7,23.3C595.3,206.3,600,236,600,282v14.1c0,46-4.7,75.7-14.7,93.5C576.1,405.9,561.8,412.9,537.5,412.9z"/>
<g>
	<path class="st0" d="M113.1,566.7v42.9c0,2.7-2.1,3.9-4.5,3.9c-2.4,0-4.5-1.2-4.5-3.9v-42.9c0-2.7,2.1-3.9,4.5-3.9
		C111,562.8,113.1,564,113.1,566.7z"/>
	<path class="st0" d="M163.6,566.5v40.9c0,4.4-1.5,5.8-6,5.8c-3.4,0-4.8-0.7-8.3-7.1l-13.2-23.7c-1.4-2.5-2.5-4.9-3.4-8.1v35.4
		c0,2.5-2,3.6-4.1,3.6c-2.1,0-4.1-1.1-4.1-3.6v-40.9c0-4.4,1.5-5.8,6-5.8c3.4,0,4.8,0.8,8.3,7.1l13.2,23.7c1.4,2.5,2.5,4.9,3.4,8.1
		v-35.4c0-2.5,2-3.6,4.1-3.6S163.6,564,163.6,566.5z"/>
	<path class="st0" d="M205.8,563.3c2.2,0,3.2,1.8,3.2,3.8s-1,3.8-3.2,3.8h-12v38.8c0,2.7-2.1,3.9-4.5,3.9s-4.5-1.2-4.5-3.9v-38.8
		h-12.1c-2.2,0-3.2-1.8-3.2-3.8s1-3.8,3.2-3.8H205.8z"/>
	<path class="st0" d="M244.7,563.3c2.1,0,3.1,1.7,3.1,3.7c0,2-1,3.7-3.1,3.7h-20.9v13.2h19.5c2,0,3,1.7,3,3.6s-1,3.6-3,3.6h-19.5
		v14.4h21.4c2.1,0,3.1,1.8,3.1,3.7c0,2-1,3.7-3.1,3.7h-24.4c-4.5,0-6-1.4-6-5.8v-38.2c0-4.4,1.5-5.8,6-5.8H244.7z"/>
	<path class="st0" d="M276.6,563.3c10.4,0,16.4,5.6,16.4,14.4v1.3c0,6.4-3.3,10.7-8.5,12.8l8.8,15.6c1.3,2.3,0.3,4.6-1.8,5.6
		c-2.2,1-4.7,0.9-5.9-1.5l-9.6-18.3c-0.5,0.1-1,0.1-1.5,0.1h-8.1v16.5c0,2.7-2.1,3.9-4.5,3.9c-2.4,0-4.5-1.2-4.5-3.9v-40.5
		c0-4.4,1.5-5.8,6-5.8H276.6z M266.4,585.7h8.2c6.8,0,9.5-2.4,9.5-6.9v-0.9c0-4.6-2.7-7.1-8.7-7.1h-9V585.7z"/>
	<path class="st0" d="M342.8,566.5v40.9c0,4.4-1.5,5.8-6,5.8c-3.4,0-4.8-0.7-8.3-7.1l-13.2-23.7c-1.4-2.5-2.5-4.9-3.4-8.1v35.4
		c0,2.5-2,3.6-4.1,3.6c-2.1,0-4.1-1.1-4.1-3.6v-40.9c0-4.4,1.5-5.8,6-5.8c3.4,0,4.8,0.8,8.3,7.1l13.2,23.7c1.4,2.5,2.5,4.9,3.4,8.1
		v-35.4c0-2.5,2-3.6,4.1-3.6C340.8,562.8,342.8,564,342.8,566.5z"/>
	<path class="st0" d="M378,567l15.8,40.6c1,2.7-0.2,4.8-2.5,5.5s-4.9,0.5-6-2.5l-4.1-11.2h-17.6l-4.1,11.5c-1,2.7-3.4,3-5.6,2.2
		s-3.4-2.6-2.5-5.2l15.8-41c1.2-3.2,3.1-4.1,5.4-4.1C374.9,562.8,376.7,563.8,378,567z M369.9,581.8l-3.7,10.2h12.3l-3.6-10.2
		c-1.2-3.3-1.8-5.3-2.5-7.8C371.6,576.8,371.1,578.6,369.9,581.8z"/>
	<path class="st0" d="M411.4,566.7v38.8h20.3c2.2,0,3.2,1.8,3.2,3.8s-1,3.8-3.2,3.8h-23.3c-4.5,0-6-1.4-6-5.8v-40.5
		c0-2.7,2.1-3.9,4.5-3.9C409.3,562.8,411.4,564,411.4,566.7z"/>
	<path class="st0" d="M488.5,565.1c2,1,2.7,3.4,1.5,5.4c-1.1,2.1-3,2.6-5,1.8c-2.9-1.3-5.4-1.8-9.1-1.8c-6.1,0-9.3,3.2-9.3,6.1v0.4
		c0,3.5,2,5.1,10.5,6.9c11.7,2.4,16.3,7.1,16.3,14.6v0.6c0,9.5-6.4,14.8-18.6,14.8c-5.7,0-11.6-1.6-15.3-3.9
		c-2.2-1.4-2.4-3.9-1.1-5.8c1.3-2,3.3-2.5,5.4-1.3c3.3,1.9,7.3,3,11.5,3c6.4,0,9.2-2.6,9.2-6v-0.5c0-3.9-2.9-5.9-9.6-7.2
		c-11.8-2.3-17.2-5.5-17.2-14.8v-0.5c0-7.8,6.3-14.2,18.1-14.2C480.8,562.5,485,563.3,488.5,565.1z"/>
	<path class="st0" d="M532.6,563.3c2.1,0,3.1,1.7,3.1,3.7c0,2-1,3.7-3.1,3.7h-20.9v13.2h19.5c2,0,3,1.7,3,3.6s-1,3.6-3,3.6h-19.5
		v14.4h21.4c2.1,0,3.1,1.8,3.1,3.7c0,2-1,3.7-3.1,3.7h-24.4c-4.5,0-6-1.4-6-5.8v-38.2c0-4.4,1.5-5.8,6-5.8H532.6z"/>
	<path class="st0" d="M564.5,563.3c10.4,0,16.4,5.6,16.4,14.4v1.3c0,6.4-3.3,10.7-8.5,12.8l8.8,15.6c1.3,2.3,0.3,4.6-1.8,5.6
		c-2.2,1-4.7,0.9-5.9-1.5l-9.6-18.3c-0.5,0.1-1.1,0.1-1.5,0.1h-8.1v16.5c0,2.7-2.1,3.9-4.5,3.9s-4.5-1.2-4.5-3.9v-40.5
		c0-4.4,1.5-5.8,6-5.8H564.5z M554.3,585.7h8.2c6.8,0,9.5-2.4,9.5-6.9v-0.9c0-4.6-2.7-7.1-8.7-7.1h-9V585.7z"/>
	<path class="st0" d="M630.1,568.5l-15.8,40.8c-1.3,3.2-3.2,4.1-5.5,4.1c-2.3,0-4.2-0.9-5.5-4.1l-15.4-40.7
		c-1.1-2.7,0.3-4.6,2.6-5.4c2.3-0.8,5-0.3,6,2.3l12.5,36.5l12.8-36.3c1-2.7,3.4-3.3,5.8-2.5C629.8,564,631.1,565.9,630.1,568.5z"/>
	<path class="st0" d="M669.2,563.3c2.1,0,3.1,1.7,3.1,3.7c0,2-1,3.7-3.1,3.7h-20.9v13.2h19.5c2,0,3,1.7,3,3.6s-1,3.6-3,3.6h-19.5
		v14.4h21.4c2.1,0,3.1,1.8,3.1,3.7c0,2-1,3.7-3.1,3.7h-24.4c-4.5,0-5.9-1.4-5.9-5.8v-38.2c0-4.4,1.5-5.8,5.9-5.8H669.2z"/>
	<path class="st0" d="M701,563.3c10.4,0,16.4,5.6,16.4,14.4v1.3c0,6.4-3.3,10.7-8.5,12.8l8.8,15.6c1.3,2.3,0.3,4.6-1.8,5.6
		c-2.2,1-4.7,0.9-5.9-1.5l-9.6-18.3c-0.5,0.1-1,0.1-1.5,0.1h-8.1v16.5c0,2.7-2.1,3.9-4.5,3.9c-2.4,0-4.5-1.2-4.5-3.9v-40.5
		c0-4.4,1.5-5.8,5.9-5.8H701z M690.9,585.7h8.2c6.8,0,9.5-2.4,9.5-6.9v-0.9c0-4.6-2.7-7.1-8.7-7.1h-9V585.7z"/>
	<path class="st0" d="M775.5,563.3c2.1,0,3.1,1.7,3.1,3.7c0,2-1,3.7-3.1,3.7h-20.9v13.2h19.5c2,0,3,1.7,3,3.6s-1,3.6-3,3.6h-19.5
		v14.4h21.4c2.1,0,3.1,1.8,3.1,3.7c0,2-1,3.7-3.1,3.7h-24.4c-4.5,0-5.9-1.4-5.9-5.8v-38.2c0-4.4,1.5-5.8,5.9-5.8H775.5z"/>
	<path class="st0" d="M807.3,563.3c10.4,0,16.4,5.6,16.4,14.4v1.3c0,6.4-3.3,10.7-8.5,12.8l8.8,15.6c1.3,2.3,0.3,4.6-1.8,5.6
		c-2.2,1-4.7,0.9-5.9-1.5l-9.6-18.3c-0.5,0.1-1.1,0.1-1.5,0.1h-8.1v16.5c0,2.7-2.1,3.9-4.5,3.9s-4.5-1.2-4.5-3.9v-40.5
		c0-4.4,1.5-5.8,6-5.8H807.3z M797.1,585.7h8.2c6.8,0,9.5-2.4,9.5-6.9v-0.9c0-4.6-2.7-7.1-8.7-7.1h-9V585.7z"/>
	<path class="st0" d="M853.5,563.3c10.4,0,16.4,5.6,16.4,14.4v1.3c0,6.4-3.3,10.7-8.5,12.8l8.8,15.6c1.3,2.3,0.3,4.6-1.8,5.6
		c-2.2,1-4.7,0.9-5.9-1.5l-9.6-18.3c-0.5,0.1-1.1,0.1-1.5,0.1h-8.1v16.5c0,2.7-2.1,3.9-4.5,3.9s-4.5-1.2-4.5-3.9v-40.5
		c0-4.4,1.5-5.8,6-5.8H853.5z M843.3,585.7h8.2c6.8,0,9.5-2.4,9.5-6.9v-0.9c0-4.6-2.7-7.1-8.7-7.1h-9V585.7z"/>
	<path class="st0" d="M921.5,586.7v2.9c0,17-7.8,24.2-21.4,24.2c-13.6,0-21.4-7.2-21.4-24.2v-2.9c0-17,7.8-24.2,21.4-24.2
		C913.7,562.5,921.5,569.7,921.5,586.7z M887.7,587.4v1.5c0,12.7,4.2,16.7,12.4,16.7c8.2,0,12.4-4.1,12.4-16.7v-1.5
		c0-12.7-4.2-16.7-12.4-16.7C891.9,570.7,887.7,574.7,887.7,587.4z"/>
	<path class="st0" d="M950.1,563.3c10.4,0,16.4,5.6,16.4,14.4v1.3c0,6.4-3.3,10.7-8.5,12.8l8.8,15.6c1.3,2.3,0.3,4.6-1.8,5.6
		c-2.2,1-4.7,0.9-5.9-1.5l-9.6-18.3c-0.5,0.1-1.1,0.1-1.5,0.1h-8.1v16.5c0,2.7-2.1,3.9-4.5,3.9s-4.5-1.2-4.5-3.9v-40.5
		c0-4.4,1.5-5.8,6-5.8H950.1z M939.9,585.7h8.2c6.8,0,9.5-2.4,9.5-6.9v-0.9c0-4.6-2.7-7.1-8.7-7.1h-9V585.7z"/>
</g>
</svg>
