<svg xmlns="http://www.w3.org/2000/svg" width="36" height="36" viewBox="0 0 36 36">
  <g id="그룹_882" data-name="그룹 882" transform="translate(-310 -1007)">
    <g id="그룹_881" data-name="그룹 881" transform="translate(-31.5 948)">
      <circle id="타원_10" data-name="타원 10" cx="3.862" cy="3.862" r="3.862" transform="translate(355.621 74.793)" fill="#a0a0a0"/>
      <path id="패스_644" data-name="패스 644" d="M367.293,71.759h-4.017l-.379-1.724A1.233,1.233,0,0,0,361.683,69h-4.4a1.174,1.174,0,0,0-1.214,1.034l-.379,1.724h-4.121a2.069,2.069,0,0,0-2.069,2.069v9.517a2.207,2.207,0,0,0,2.207,2.207h15.586a2.207,2.207,0,0,0,2.207-2.207V73.966A2.207,2.207,0,0,0,367.293,71.759Zm-7.81,11.793a4.9,4.9,0,1,1,4.9-4.9A4.9,4.9,0,0,1,359.483,83.552Zm7.259-8a1.034,1.034,0,1,1,1.035-1.034A1.034,1.034,0,0,1,366.741,75.552Z" transform="translate(0)" fill="#a0a0a0"/>
    </g>
    <rect id="사각형_11197" data-name="사각형 11197" width="36" height="36" transform="translate(310 1007)" fill="none"/>
  </g>
</svg>
