<?xml version="1.0" encoding="utf-8"?>
<!-- Generator: Adobe Illustrator 25.3.0, SVG Export Plug-In . SVG Version: 6.00 Build 0)  -->
<svg version="1.1" id="Layer_1" xmlns="http://www.w3.org/2000/svg" xmlns:xlink="http://www.w3.org/1999/xlink" x="0px" y="0px"
	 viewBox="0 0 96 32" style="enable-background:new 0 0 96 32;" xml:space="preserve">
<style type="text/css">
	.st0{enable-background:new    ;}
	.st1{fill:#111111;}
	.st2{fill:none;}
	.st3{fill:none;stroke:#000000;stroke-width:1.6;stroke-linecap:round;}
	.st4{fill:none;stroke:#000000;stroke-width:1.6;}
	.st5{fill:none;stroke:#333333;stroke-width:1.6;}
	.st6{fill:#333333;}
	.st7{fill:none;stroke:#A0A0A0;}
</style>
<g class="st0">
	<path class="st1" d="M17.9,28.24l-0.29,1.48l-5.31,0.02l4.91-23.47l5.45-0.76l-4.33,20.7c0.69,0.49,1.39,0.73,2.1,0.73
		c1.4-0.01,2.63-0.82,3.69-2.45c1.06-1.63,1.88-3.69,2.46-6.2c0.58-2.51,0.86-5.04,0.85-7.6C27.43,8.28,26.95,6.52,26,5.41
		c-0.95-1.11-2.27-1.67-3.97-1.66c-1.84,0.01-3.49,0.38-4.95,1.11c-1.46,0.73-2.6,1.78-3.43,3.13c-0.83,1.36-1.24,2.94-1.23,4.76
		c0,0.91,0.09,1.54,0.27,1.9c0.17,0.36,0.26,0.56,0.26,0.61c-1.28,0.01-2.26-0.26-2.93-0.8c-0.68-0.54-1.02-1.41-1.03-2.61
		c-0.01-1.67,0.61-3.26,1.86-4.76c1.25-1.5,2.92-2.72,5.02-3.64c2.1-0.92,4.36-1.38,6.8-1.39C26.02,2.03,28.5,3.02,30.11,5
		s2.42,4.52,2.43,7.62c0.01,2.8-0.45,5.56-1.38,8.28c-0.93,2.72-2.18,4.94-3.75,6.67c-1.57,1.73-3.23,2.59-5,2.6
		C20.93,30.18,19.43,29.54,17.9,28.24z"/>
	<path class="st1" d="M34.19,28.43c-0.94-0.95-1.41-2.45-1.42-4.49c-0.01-1.82,0.35-3.73,1.06-5.74c0.72-2.01,1.79-3.71,3.22-5.1
		c1.43-1.39,3.14-2.1,5.13-2.1c1.01,0,1.76,0.16,2.25,0.51c0.49,0.34,0.74,0.8,0.74,1.36l0,0.26l0.4-1.96l5.31-0.02l-2.6,12.55
		c-0.1,0.37-0.14,0.76-0.14,1.18c0,1.06,0.51,1.58,1.52,1.58c0.69,0,1.28-0.33,1.78-0.97c0.5-0.64,0.9-1.48,1.19-2.51l1.55-0.01
		c-0.9,2.66-2.01,4.46-3.35,5.42c-1.34,0.95-2.68,1.43-4.03,1.44c-1.03,0-1.86-0.28-2.49-0.85c-0.63-0.57-1.01-1.41-1.14-2.52
		c-0.71,1.01-1.5,1.83-2.37,2.46c-0.87,0.63-1.91,0.95-3.11,0.95C36.3,29.86,35.13,29.38,34.19,28.43z M41.9,25.39
		c0.6-0.58,1.01-1.37,1.22-2.38l1.73-8.34c0-0.32-0.13-0.63-0.37-0.94c-0.25-0.31-0.63-0.46-1.14-0.46c-0.98,0-1.87,0.58-2.65,1.73
		c-0.78,1.15-1.39,2.53-1.83,4.14c-0.43,1.61-0.65,3.03-0.64,4.26c0.01,1.23,0.19,2.01,0.54,2.36c0.36,0.34,0.79,0.51,1.31,0.51
		C40.7,26.26,41.3,25.97,41.9,25.39z"/>
	<path class="st1" d="M53.58,28.34c-0.94-0.95-1.41-2.45-1.42-4.49c-0.01-1.82,0.35-3.73,1.06-5.74c0.72-2.01,1.79-3.71,3.22-5.1
		c1.43-1.39,3.14-2.1,5.13-2.1c1.01,0,1.76,0.16,2.25,0.51c0.49,0.34,0.74,0.8,0.74,1.36l0,0.26l0.4-1.96l5.31-0.02l-2.6,12.55
		c-0.1,0.37-0.14,0.76-0.14,1.18c0,1.06,0.51,1.58,1.52,1.58c0.69,0,1.28-0.33,1.78-0.97c0.5-0.64,0.9-1.48,1.19-2.51l1.55-0.01
		c-0.9,2.66-2.01,4.46-3.35,5.42s-2.68,1.43-4.03,1.44c-1.03,0-1.86-0.28-2.49-0.85c-0.63-0.57-1.01-1.41-1.14-2.52
		c-0.71,1.01-1.5,1.83-2.37,2.46c-0.87,0.63-1.91,0.95-3.11,0.95C55.69,29.77,54.52,29.3,53.58,28.34z M61.29,25.3
		c0.6-0.58,1.01-1.37,1.22-2.38l1.73-8.34c0-0.32-0.13-0.63-0.37-0.94c-0.25-0.31-0.63-0.46-1.14-0.46c-0.98,0-1.87,0.58-2.65,1.73
		c-0.78,1.15-1.39,2.53-1.83,4.14c-0.43,1.61-0.65,3.03-0.64,4.26c0.01,1.23,0.19,2.01,0.55,2.36c0.36,0.34,0.79,0.51,1.31,0.51
		C60.09,26.18,60.69,25.89,61.29,25.3z"/>
	<path class="st1" d="M73.12,28.46c-0.89-0.82-1.34-1.98-1.34-3.48c0-0.74,0.08-1.44,0.25-2.1l3.86-18.49l5.45-0.76l-1.73,8.3
		c0.69-0.42,1.25-0.7,1.69-0.84c0.44-0.14,0.88-0.21,1.33-0.21c2.9-0.01,4.36,2.08,4.38,6.28c0.01,1.7-0.31,3.51-0.95,5.44
		c-0.64,1.93-1.72,3.59-3.22,4.97c-1.5,1.38-3.46,2.08-5.87,2.09C75.29,29.68,74.01,29.28,73.12,28.46z M81.14,24.66
		c0.66-0.95,1.18-2.13,1.57-3.55c0.39-1.41,0.58-2.77,0.57-4.08c0-0.98-0.18-1.82-0.53-2.5c-0.35-0.69-0.83-1.03-1.44-1.03
		c-0.37,0-0.78,0.06-1.23,0.17c-0.45,0.11-0.77,0.28-0.94,0.5l-1.99,9.37c-0.07,0.3-0.11,0.58-0.11,0.85c0,1.13,0.66,1.69,1.96,1.69
		C79.77,26.09,80.48,25.61,81.14,24.66z"/>
</g>
</svg>
