<?xml version="1.0" encoding="utf-8"?>
<!-- Generator: Adobe Illustrator 25.3.0, SVG Export Plug-In . SVG Version: 6.00 Build 0)  -->
<svg version="1.1" id="Layer_1" xmlns="http://www.w3.org/2000/svg" xmlns:xlink="http://www.w3.org/1999/xlink" x="0px" y="0px"
	 viewBox="0 0 32 32" style="enable-background:new 0 0 32 32;" xml:space="preserve">
<style type="text/css">
	.st0{enable-background:new    ;}
	.st1{fill:#111111;}
	.st2{fill:none;}
	.st3{fill:none;stroke:#000000;stroke-width:1.6;stroke-linecap:round;}
	.st4{fill:none;stroke:#000000;stroke-width:1.6;}
	.st5{fill:none;stroke:#333333;stroke-width:1.6;}
	.st6{fill:#333333;}
	.st7{clip-path:url(#SVGID_2_);}
	.st8{fill:none;stroke:#A0A0A0;}
</style>
<g id="DHLs4A.tif" transform="translate(298.717 2339.686)">
	<g id="그룹_102" transform="translate(-26.717 351.314)">
		<path id="패스_168" class="st6" d="M-250.62-2664h-10.74c-0.07-0.01-0.14-0.03-0.21-0.04c-0.6-0.05-1.19-0.21-1.73-0.46
			c-2.26-0.93-3.72-3.15-3.67-5.6c-0.05-3.26-0.01-6.53-0.01-9.79c-0.02-1.04,0.25-2.07,0.77-2.98c1.07-1.98,3.16-3.18,5.41-3.12
			c3.21-0.02,6.41-0.01,9.62,0c0.42-0.01,0.83,0.03,1.24,0.11c2.35,0.42,4.22,2.2,4.77,4.52c0.09,0.32,0.12,0.66,0.18,0.99v10.74
			c-0.04,0.23-0.06,0.45-0.11,0.67c-0.42,2.35-2.2,4.23-4.53,4.77C-249.96-2664.09-250.3-2664.06-250.62-2664z M-255.98-2684.04
			c-1.6,0-3.19,0-4.79,0c-0.5-0.01-1,0.06-1.48,0.22c-1.71,0.58-2.85,2.2-2.8,4.01c-0.01,3.21-0.01,6.41,0.01,9.62
			c0,0.49,0.07,0.97,0.22,1.43c0.56,1.72,2.19,2.86,4,2.8c3.21,0.01,6.41,0.01,9.62-0.01c0.49,0,0.97-0.07,1.43-0.22
			c1.72-0.55,2.86-2.17,2.81-3.97c0.01-3.23,0.01-6.46,0-9.68c0.04-1.37-0.62-2.67-1.76-3.45c-0.73-0.51-1.61-0.78-2.5-0.75
			C-252.8-2684.05-254.39-2684.04-255.98-2684.04L-255.98-2684.04z"/>
		<path id="패스_172" class="st6" d="M-250.33-2675c0,3.13-2.54,5.66-5.67,5.66c-3.13,0-5.66-2.54-5.66-5.67
			c0-3.13,2.54-5.66,5.66-5.66C-252.87-2680.65-250.34-2678.12-250.33-2675z M-256-2678.71c-2.05,0-3.71,1.67-3.7,3.72
			c0.01,2.05,1.67,3.71,3.72,3.7c2.05-0.01,3.71-1.67,3.7-3.72c0,0,0,0,0,0C-252.29-2677.06-253.95-2678.71-256-2678.71
			L-256-2678.71z"/>
		<path id="패스_173" class="st6" d="M-250.08-2679.46c-0.79,0-1.43-0.63-1.43-1.42c0-0.79,0.63-1.43,1.42-1.43
			s1.43,0.63,1.43,1.42c0,0,0,0,0,0C-248.66-2680.1-249.3-2679.47-250.08-2679.46z"/>
	</g>
</g>
</svg>
