<?xml version="1.0" encoding="utf-8"?>
<!-- Generator: Adobe Illustrator 25.3.0, SVG Export Plug-In . SVG Version: 6.00 Build 0)  -->
<svg version="1.1" id="Layer_1" xmlns="http://www.w3.org/2000/svg" xmlns:xlink="http://www.w3.org/1999/xlink" x="0px" y="0px"
	 viewBox="0 0 32 32" style="enable-background:new 0 0 32 32;" xml:space="preserve">
<style type="text/css">
	.st0{enable-background:new    ;}
	.st1{fill:#111111;}
	.st2{fill:none;}
	.st3{fill:none;stroke:#000000;stroke-width:1.6;stroke-linecap:round;}
	.st4{fill:none;stroke:#000000;stroke-width:1.6;}
	.st5{fill:none;stroke:#333333;stroke-width:1.6;}
	.st6{fill:#333333;}
	.st7{clip-path:url(#SVGID_2_);}
	.st8{fill:none;stroke:#A0A0A0;}
</style>
<g id="그룹_101" transform="translate(183.757 2585.685)">
	<path id="빼기_1" class="st6" d="M-175.02-2558.68h-0.14c-0.16-0.06-0.23-0.25-0.17-0.4c0,0,0,0,0,0
		c0.05-0.17,0.09-0.35,0.13-0.52l0,0c0.06-0.25,0.13-0.5,0.2-0.75c0.2-0.71,0.41-1.43,0.62-2.13v-0.01l0,0l0.24-0.81l-0.02-0.03
		c-0.01-0.01-0.01-0.02-0.02-0.02c-0.06-0.03-0.13-0.07-0.19-0.1c-0.67-0.35-1.31-0.76-1.91-1.22c-0.59-0.47-1.14-1-1.62-1.59
		c-1.14-1.35-1.8-3.05-1.87-4.81c-0.03-1.77,0.53-3.49,1.6-4.9c0.36-0.48,0.76-0.94,1.2-1.35c0.43-0.4,0.88-0.77,1.37-1.1
		c0.99-0.65,2.06-1.17,3.19-1.53c1.48-0.49,3.03-0.74,4.58-0.74c0.76,0,1.53,0.06,2.28,0.17c1.12,0.16,2.22,0.45,3.27,0.87
		c1.05,0.42,2.04,0.99,2.93,1.68c0.78,0.59,1.47,1.3,2.05,2.09c0.57,0.8,1,1.69,1.25,2.64c0.08,0.3,0.14,0.62,0.19,0.92
		c0.02,0.14,0.05,0.29,0.08,0.43v1.17c0,0.02-0.01,0.04-0.01,0.06c-0.01,0.04-0.02,0.08-0.03,0.12c-0.11,1.07-0.44,2.1-0.97,3.03
		c-0.51,0.89-1.16,1.7-1.92,2.39c-0.77,0.68-1.62,1.26-2.54,1.72c-1.01,0.51-2.08,0.9-3.18,1.15c-1.09,0.24-2.2,0.37-3.31,0.36
		c-0.66,0-1.31-0.04-1.96-0.11h-0.05c-0.11,0-0.22,0.03-0.31,0.09c-0.29,0.19-0.58,0.4-0.86,0.59l0,0h-0.01
		c-0.29,0.2-0.59,0.41-0.88,0.61c-0.26,0.18-0.52,0.36-0.77,0.53C-173.34-2559.62-174.16-2559.11-175.02-2558.68L-175.02-2558.68z
		 M-175.08-2572.75L-175.08-2572.75v0.28c0,0.29,0,0.59,0,0.88v0.03c0,0.27,0,0.61,0,0.94c0,0.74,0,1.32,0.01,1.85
		c0.01,0.2,0.08,0.39,0.2,0.55c0.05,0.06,0.11,0.11,0.18,0.15c0.08,0.05,0.18,0.07,0.28,0.07c0.05,0,0.09,0,0.14-0.01
		c0.05-0.01,0.11-0.03,0.16-0.05c0.27-0.1,0.44-0.36,0.42-0.64c0-0.49,0-1.01,0-1.64c0-0.48,0-0.96,0-1.44v-0.96h0.77
		c0.12,0,0.22,0,0.31-0.01h0.02c0.36-0.01,0.65-0.31,0.66-0.67c0-0.01,0-0.01,0-0.02c-0.01-0.36-0.31-0.65-0.67-0.65h-0.86h-0.84
		c-0.52,0-1.05,0-1.64,0h-0.25c-0.28,0-0.53,0.19-0.62,0.46c-0.02,0.07-0.04,0.14-0.04,0.22c0,0.18,0.07,0.34,0.2,0.46
		c0.14,0.13,0.33,0.2,0.52,0.2h0.18h0.51L-175.08-2572.75z M-169.41-2569.22L-169.41-2569.22c0.12-0.01,0.23,0.07,0.26,0.2
		l0.02,0.06v0.01c0.06,0.21,0.14,0.41,0.23,0.61c0.06,0.13,0.17,0.23,0.3,0.28c0.1,0.04,0.2,0.06,0.3,0.06c0.1,0,0.2-0.01,0.29-0.04
		l0.03-0.01c0.22-0.05,0.36-0.26,0.35-0.48c0-0.05-0.01-0.11-0.01-0.16c-0.05-0.29-0.13-0.58-0.23-0.85
		c-0.25-0.66-0.51-1.32-0.76-1.96l0,0v-0.01c-0.23-0.58-0.46-1.18-0.69-1.78c-0.12-0.43-0.49-0.75-0.94-0.79h-0.04
		c-0.41,0.02-0.77,0.29-0.91,0.68c-0.01,0.02-0.02,0.04-0.03,0.07c-0.51,1.32-1.05,2.74-1.59,4.17c-0.04,0.12-0.08,0.25-0.11,0.38
		c-0.01,0.06-0.03,0.12-0.04,0.18c-0.02,0.27,0.17,0.52,0.44,0.57h0.01h0.01l0.03,0.01c0.08,0.02,0.16,0.03,0.25,0.03h0.01
		c0.24,0.02,0.47-0.12,0.57-0.34l0-0.01c0.08-0.18,0.15-0.38,0.21-0.56l0.04-0.12c0.02-0.11,0.12-0.19,0.24-0.18h0.01l0.44,0.01
		h0.44h0.01h0.42L-169.41-2569.22L-169.41-2569.22L-169.41-2569.22z M-162.76-2574.1c-0.19-0.01-0.37,0.07-0.5,0.21
		c-0.13,0.15-0.2,0.34-0.19,0.54c0,0.75,0,1.52,0,2.28c0,0.76,0,1.52,0,2.28c-0.01,0.2,0.06,0.39,0.19,0.55
		c0.13,0.14,0.31,0.22,0.49,0.21l0,0c0.39-0.01,0.7-0.32,0.69-0.71c0-0.01,0-0.03,0-0.04c0-0.05,0-0.1,0-0.15v-0.02
		c0-0.16,0-0.32,0-0.49c0-0.2,0-0.36-0.01-0.51c0-0.01,0-0.03,0-0.04c-0.01-0.19,0.1-0.36,0.26-0.45c0.03,0.03,0.06,0.07,0.09,0.1
		c0.07,0.07,0.13,0.14,0.19,0.22c0.11,0.15,0.21,0.3,0.31,0.45l0,0l0,0c0.16,0.23,0.32,0.47,0.5,0.7c0.2,0.29,0.43,0.55,0.69,0.79
		l0.02,0.02c0.11,0.09,0.25,0.14,0.39,0.14h0.01c0.29-0.01,0.53-0.2,0.62-0.48c0-0.01,0.01-0.03,0.01-0.04
		c0.02-0.06,0.03-0.12,0.03-0.18c-0.01-0.18-0.07-0.34-0.19-0.48l-0.13-0.18c-0.46-0.6-0.93-1.23-1.4-1.83
		c-0.04-0.05-0.07-0.11-0.07-0.18c0.01-0.06,0.04-0.12,0.09-0.16l0.22-0.2c0.27-0.25,0.54-0.5,0.81-0.76
		c0.18-0.17,0.34-0.36,0.49-0.56c0.06-0.08,0.09-0.18,0.09-0.29c-0.01-0.14-0.06-0.28-0.16-0.38l-0.03-0.03
		c-0.11-0.14-0.28-0.23-0.46-0.25h-0.01c-0.14,0.01-0.28,0.06-0.39,0.16c-0.24,0.2-0.46,0.42-0.67,0.65l-0.18,0.19
		c-0.24,0.25-0.49,0.51-0.72,0.76l-0.01,0.01l-0.29,0.31l-0.09-0.05c0-0.14,0-0.27,0-0.41s0-0.27,0-0.39c0-0.21,0-0.39,0-0.55
		c0.01-0.2-0.06-0.39-0.19-0.54C-162.39-2574.02-162.57-2574.1-162.76-2574.1L-162.76-2574.1L-162.76-2574.1z M-166.56-2574.1h-0.03
		c-0.39,0.02-0.7,0.35-0.68,0.75c0,0.02,0,0.03,0,0.05c0,0,0,0.01,0,0.01c0,0.19,0,0.38,0,0.58c0,0.44,0,0.88,0,1.3
		c0,0.4,0,0.82,0,1.23c0,0.1,0,0.21,0,0.31c0,0.1,0,0.22,0,0.33c0,0.23,0,0.52,0.03,0.81c0,0.18,0.07,0.35,0.19,0.47
		c0.15,0.1,0.32,0.15,0.5,0.14h0.88h1.18c0.1,0,0.2-0.01,0.3-0.04c0.26-0.07,0.44-0.29,0.46-0.56c0-0.01,0-0.02,0-0.03
		c0-0.26-0.15-0.48-0.39-0.57c-0.12-0.04-0.24-0.06-0.37-0.05h-0.3h-1.07v-0.31c0-0.34,0-0.67,0-1.01v-0.06c0-0.32,0-0.65,0-0.97
		c0-0.62,0-1.12,0-1.59c0.04-0.39-0.24-0.74-0.63-0.78C-166.5-2574.1-166.52-2574.1-166.56-2574.1
		C-166.55-2574.1-166.56-2574.1-166.56-2574.1z"/>
	<path id="패스_167" class="st6" d="M-170.27-2572.31l0.66,1.85h-1.37l0.66-1.86L-170.27-2572.31z"/>
</g>
</svg>
