<?xml version="1.0" encoding="utf-8"?>
<!-- Generator: Adobe Illustrator 25.4.0, SVG Export Plug-In . SVG Version: 6.00 Build 0)  -->
<svg version="1.1" id="Layer_1" xmlns="http://www.w3.org/2000/svg" xmlns:xlink="http://www.w3.org/1999/xlink" x="0px" y="0px"
	 viewBox="0 0 60 60" style="enable-background:new 0 0 60 60;" xml:space="preserve">
<style type="text/css">
	.st0{fill:none;stroke:#FFFFFF;stroke-width:2;stroke-linecap:round;stroke-linejoin:round;stroke-miterlimit:10;}
	.st1{opacity:0.3;fill:#FFFFFF;}
</style>
<path class="st0" d="M45.3,45h7.6c1.3,0,2.4,1.1,2.4,2.4v0.1c0,1.3-1.1,2.4-2.4,2.4h-0.4c-1.3,0-2.4,1.1-2.4,2.4v0
	c0,1.3,1.1,2.4,2.4,2.4h5.1"/>
<g>
	<ellipse class="st1" cx="30" cy="36.5" rx="8.4" ry="8.4"/>
	<rect x="15.1" y="9.1" class="st0" width="29.8" height="41.9"/>
	<ellipse class="st0" cx="30" cy="36.5" rx="8.4" ry="8.4"/>
	<ellipse class="st0" cx="30" cy="36.5" rx="3.2" ry="3.2"/>
	<ellipse class="st0" cx="30" cy="18.5" rx="5" ry="5"/>
	<path class="st0" d="M53.3,36.9c4.3-4.3,4.3-11.2,0-15.5"/>
	<path class="st0" d="M50,32.7c2-2,2-5.2,0-7.2"/>
	<path class="st0" d="M6.7,36.9c-4.3-4.3-4.3-11.2,0-15.5"/>
	<path class="st0" d="M10,32.7c-2-2-2-5.2,0-7.2"/>
	<ellipse class="st1" cx="30" cy="18.5" rx="5" ry="5"/>
</g>
</svg>
