<?xml version="1.0" encoding="utf-8"?>
<!-- Generator: Adobe Illustrator 25.3.1, SVG Export Plug-In . SVG Version: 6.00 Build 0)  -->
<svg version="1.1" id="Layer_1" xmlns="http://www.w3.org/2000/svg" xmlns:xlink="http://www.w3.org/1999/xlink" x="0px" y="0px"
	 viewBox="0 0 14 14" style="enable-background:new 0 0 14 14;" xml:space="preserve">
<style type="text/css">
	.st0{fill:#D84444;}
</style>
<g>
	<path class="st0" d="M7,1c3.3,0,6,2.7,6,6s-2.7,6-6,6s-6-2.7-6-6S3.7,1,7,1 M7,0C3.1,0,0,3.1,0,7s3.1,7,7,7s7-3.1,7-7S10.9,0,7,0
		L7,0z"/>
</g>
<g>
	<path class="st0" d="M4.9,10.4h1.4V6.4H5.1V5.3h2.6v5.1h1.4v1.1H4.9V10.4z M6.1,3.5V3.2c0-0.4,0.2-0.7,0.9-0.7
		c0.7,0,0.9,0.3,0.9,0.7v0.3c0,0.4-0.2,0.7-0.9,0.7C6.3,4.2,6.1,3.9,6.1,3.5z"/>
</g>
</svg>
