<?xml version="1.0" encoding="utf-8"?>
<!-- Generator: Adobe Illustrator 25.4.0, SVG Export Plug-In . SVG Version: 6.00 Build 0)  -->
<svg version="1.1" id="Layer_1" xmlns="http://www.w3.org/2000/svg" xmlns:xlink="http://www.w3.org/1999/xlink" x="0px" y="0px"
	 viewBox="0 0 60 60" style="enable-background:new 0 0 60 60;" xml:space="preserve">
<style type="text/css">
	.st0{opacity:0.3;fill:#FFFFFF;}
	.st1{fill:none;stroke:#FFFFFF;stroke-width:2;stroke-linecap:round;stroke-linejoin:round;stroke-miterlimit:10;}
	.st2{fill:#FFFFFF;}
	.st3{fill:#FFFFFF;stroke:#FFFFFF;stroke-width:2;stroke-linecap:round;stroke-linejoin:round;stroke-miterlimit:10;}
</style>
<g>
	<g>
		<ellipse class="st0" cx="24.5" cy="36" rx="16.8" ry="16.8"/>
		<rect x="2.5" y="13.9" class="st1" width="55" height="44.2"/>
		<ellipse class="st1" cx="24.5" cy="36" rx="16.8" ry="16.8"/>
		<path class="st1" d="M12.1,36c0-6.9,5.6-12.4,12.4-12.4"/>
		<path class="st1" d="M17.1,36c0-4.1,3.3-7.4,7.4-7.4"/>
		<path class="st1" d="M24.5,48.4C31.4,48.4,37,42.8,37,36"/>
		<path class="st1" d="M24.5,43.4c4.1,0,7.4-3.3,7.4-7.4"/>
		<rect x="46.8" y="19.2" class="st1" width="6.5" height="8"/>
		<path class="st1" d="M50,27.2v10.7c0,2.6-0.9,5.1-2.6,7L45,47.6"/>
		
			<rect x="41.6" y="44.5" transform="matrix(0.7068 0.7074 -0.7074 0.7068 47.1973 -16.7293)" class="st2" width="4.4" height="8.2"/>
		<circle class="st3" cx="24.5" cy="36" r="1.4"/>
	</g>
	<g>
		<line class="st1" x1="29.4" y1="6.7" x2="29.4" y2="1.9"/>
		<line class="st1" x1="24.1" y1="8.1" x2="21.8" y2="4"/>
		<line class="st1" x1="34.7" y1="8.1" x2="37" y2="4"/>
	</g>
</g>
</svg>
