<?xml version="1.0" encoding="utf-8"?>
<!-- Generator: Adobe Illustrator 25.4.0, SVG Export Plug-In . SVG Version: 6.00 Build 0)  -->
<svg version="1.1" id="Layer_1" xmlns="http://www.w3.org/2000/svg" xmlns:xlink="http://www.w3.org/1999/xlink" x="0px" y="0px"
	 viewBox="0 0 60 60" style="enable-background:new 0 0 60 60;" xml:space="preserve">
<style type="text/css">
	.st0{opacity:0.3;fill:#FFFFFF;}
	.st1{fill:none;stroke:#FFFFFF;stroke-width:2;stroke-linecap:round;stroke-linejoin:round;stroke-miterlimit:10;}
	.st2{fill:#FFFFFF;}
	.st3{fill:#FFFFFF;stroke:#FFFFFF;stroke-width:2;stroke-linecap:round;stroke-linejoin:round;stroke-miterlimit:10;}
</style>
<g>
	<g>
		<ellipse class="st0" cx="-90.5" cy="36" rx="16.8" ry="16.8"/>
		<rect x="-112.5" y="13.9" class="st1" width="55" height="44.2"/>
		<ellipse class="st1" cx="-90.5" cy="36" rx="16.8" ry="16.8"/>
		<path class="st1" d="M-102.9,36c0-6.9,5.6-12.4,12.4-12.4"/>
		<path class="st1" d="M-97.9,36c0-4.1,3.3-7.4,7.4-7.4"/>
		<path class="st1" d="M-90.5,48.4c6.8,0,12.4-5.6,12.4-12.4"/>
		<path class="st1" d="M-90.5,43.4c4.1,0,7.4-3.3,7.4-7.4"/>
		<rect x="-68.2" y="19.2" class="st1" width="6.5" height="8"/>
		<path class="st1" d="M-65,27.2v10.7c0,2.6-0.9,5.1-2.6,7l-2.4,2.7"/>
		
			<rect x="-73.4" y="44.5" transform="matrix(0.7068 0.7074 -0.7074 0.7068 13.4827 64.6199)" class="st2" width="4.4" height="8.2"/>
		<circle class="st3" cx="-90.5" cy="36" r="1.4"/>
	</g>
	<g>
		<line class="st1" x1="-85.6" y1="6.7" x2="-85.6" y2="1.9"/>
		<line class="st1" x1="-90.9" y1="8.1" x2="-93.2" y2="4"/>
		<line class="st1" x1="-80.3" y1="8.1" x2="-78" y2="4"/>
	</g>
</g>
<path class="st1" d="M-65.7-24h7.6c1.3,0,2.4,1.1,2.4,2.4v0.1c0,1.3-1.1,2.4-2.4,2.4h-0.4c-1.3,0-2.4,1.1-2.4,2.4v0
	c0,1.3,1.1,2.4,2.4,2.4h5.1"/>
<g>
	<ellipse class="st0" cx="-81" cy="-32.5" rx="8.4" ry="8.4"/>
	<rect x="-95.9" y="-59.9" class="st1" width="29.8" height="41.9"/>
	<ellipse class="st1" cx="-81" cy="-32.5" rx="8.4" ry="8.4"/>
	<ellipse class="st1" cx="-81" cy="-32.5" rx="3.2" ry="3.2"/>
	<ellipse class="st1" cx="-81" cy="-50.5" rx="5" ry="5"/>
	<path class="st1" d="M-57.7-32.1c4.3-4.3,4.3-11.2,0-15.5"/>
	<path class="st1" d="M-61-36.3c2-2,2-5.2,0-7.2"/>
	<path class="st1" d="M-104.3-32.1c-4.3-4.3-4.3-11.2,0-15.5"/>
	<path class="st1" d="M-101-36.3c-2-2-2-5.2,0-7.2"/>
	<ellipse class="st0" cx="-81" cy="-50.5" rx="5" ry="5"/>
</g>
<g>
	<rect x="8.6" y="31.4" class="st0" width="6.7" height="19"/>
	<path class="st1" d="M11.9,31c0-11.8,8.1-21.4,18-21.4S48,19.1,48,31"/>
	<rect x="8.1" y="31.4" class="st1" width="7.6" height="19"/>
	<path class="st1" d="M7.7,47.6L7.7,47.6c-3.4,0-6.2-2.8-6.2-6.2v-1c0-3.4,2.8-6.2,6.2-6.2h0c0.3,0,0.5,0.2,0.5,0.5v12.4
		C8.1,47.4,7.9,47.6,7.7,47.6z"/>
	<rect x="44.7" y="31.4" transform="matrix(-1 -4.485935e-11 4.485935e-11 -1 96.1 81.85)" class="st0" width="6.7" height="19"/>
	<rect x="44.2" y="31.4" transform="matrix(-1 -4.499613e-11 4.499613e-11 -1 96.1 81.85)" class="st1" width="7.6" height="19"/>
	<path class="st1" d="M52.3,47.6L52.3,47.6c3.4,0,6.2-2.8,6.2-6.2v-1c0-3.4-2.8-6.2-6.2-6.2h0c-0.3,0-0.5,0.2-0.5,0.5v12.4
		C51.8,47.4,52.1,47.6,52.3,47.6z"/>
	<path class="st0" d="M7.7,47.6L7.7,47.6c-3.4,0-6.2-2.8-6.2-6.2v-1c0-3.4,2.8-6.2,6.2-6.2h0c0.3,0,0.5,0.2,0.5,0.5v12.4
		C8.1,47.4,7.9,47.6,7.7,47.6z"/>
	<path class="st0" d="M52.3,47.6L52.3,47.6c3.4,0,6.2-2.8,6.2-6.2v-1c0-3.4-2.8-6.2-6.2-6.2h0c-0.3,0-0.5,0.2-0.5,0.5v12.4
		C51.8,47.4,52.1,47.6,52.3,47.6z"/>
</g>
</svg>
