<?xml version="1.0" encoding="utf-8"?>
<!-- Generator: Adobe Illustrator 25.3.0, SVG Export Plug-In . SVG Version: 6.00 Build 0)  -->
<svg version="1.1" id="Layer_1" xmlns="http://www.w3.org/2000/svg" xmlns:xlink="http://www.w3.org/1999/xlink" x="0px" y="0px"
	 viewBox="0 0 32 32" style="enable-background:new 0 0 32 32;" xml:space="preserve">
<style type="text/css">
	.st0{enable-background:new    ;}
	.st1{fill:#111111;}
	.st2{fill:none;}
	.st3{fill:none;stroke:#000000;stroke-width:1.6;stroke-linecap:round;}
	.st4{fill:none;stroke:#000000;stroke-width:1.6;}
	.st5{fill:none;stroke:#333333;stroke-width:1.6;}
	.st6{fill:#333333;}
	.st7{clip-path:url(#SVGID_2_);}
	.st8{fill:none;stroke:#A0A0A0;}
</style>
<g id="BHCpE3.tif" transform="translate(254.116 2480.212)">
	<g id="그룹_103" transform="translate(55.884 213.788)">
		<path id="패스_175" class="st6" d="M-293.98-2669.59c-2.4-0.09-4.8-0.17-7.2-0.27c-0.58-0.03-1.16-0.09-1.74-0.19
			c-1.43-0.16-2.57-1.29-2.71-2.73c-0.35-2.29-0.46-4.61-0.33-6.92c0.06-1.29,0.2-2.58,0.4-3.86c0.22-1.36,1.35-2.39,2.72-2.49
			c2.62-0.28,5.25-0.41,7.88-0.36c2.38,0,4.77,0.07,7.15,0.14c0.87,0.03,1.74,0.11,2.6,0.24c1.51,0.1,2.72,1.29,2.84,2.8
			c0.3,1.94,0.42,3.9,0.36,5.85c0.01,1.6-0.13,3.2-0.41,4.78c-0.2,1.41-1.36,2.48-2.78,2.58c-2.64,0.27-5.29,0.39-7.94,0.37
			c-0.28,0-0.55,0-0.83,0L-293.98-2669.59z M-296.39-2681.63v7.2l6.25-3.59L-296.39-2681.63z"/>
	</g>
</g>
</svg>
