<?xml version="1.0" encoding="utf-8"?>
<!-- Generator: Adobe Illustrator 25.3.1, SVG Export Plug-In . SVG Version: 6.00 Build 0)  -->
<svg version="1.1" id="Layer_1" xmlns="http://www.w3.org/2000/svg" xmlns:xlink="http://www.w3.org/1999/xlink" x="0px" y="0px"
	 viewBox="0 0 128 128" style="enable-background:new 0 0 128 128;" xml:space="preserve">
<style type="text/css">
	.st0{fill:#FD9B27;}
	.st1{fill:#FFFFFF;}
</style>
<g>
	<path class="st0" d="M111.1,71c6-2,10.4-7.7,10.4-14.4s-4.3-12.4-10.4-14.4"/>
	<path class="st1" d="M50.9,121.3H36.1c-2.2,0-4-1.8-4-4V82.8c0-2.2,1.8-4,4-4h14.8c2.2,0,4,1.8,4,4v34.5
		C54.9,119.5,53.1,121.3,50.9,121.3z M40.1,113.3h6.8V86.8h-6.8V113.3z"/>
	<path class="st1" d="M96.3,102.9c-0.7,0-1.4-0.2-2-0.5l-27-15.6H36.8c-16.7,0-30.3-13.6-30.3-30.3c0-16.7,13.6-30.3,30.3-30.3h30.5
		l27-15.6c1.2-0.7,2.8-0.7,4,0c1.2,0.7,2,2,2,3.5v84.8c0,1.4-0.8,2.8-2,3.5C97.6,102.8,97,102.9,96.3,102.9z M36.8,34.3
		c-12.3,0-22.3,10-22.3,22.3c0,12.3,10,22.3,22.3,22.3h31.6c0.7,0,1.4,0.2,2,0.5L92.3,92v-71L70.4,33.7c-0.6,0.4-1.3,0.5-2,0.5H36.8
		z"/>
	<path class="st1" d="M103.9,106.3c-1.8,0-3.8-0.6-5.6-1.6l-4-2.3l4-6.9l4,2.3c1.1,0.6,1.7,0.6,1.8,0.6c0.1-0.1,0.4-0.6,0.4-1.8v-80
		c0-1.2-0.3-1.7-0.4-1.8c-0.1,0-0.7,0-1.7,0.6l-4,2.3l-4-6.9l4-2.3c3.4-2,7-2.2,9.8-0.6c2.8,1.6,4.4,4.8,4.4,8.7v80
		c0,3.9-1.6,7.1-4.4,8.7C106.8,106,105.4,106.3,103.9,106.3z"/>
</g>
</svg>
