<?xml version="1.0" encoding="utf-8"?>
<!-- Generator: Adobe Illustrator 25.3.1, SVG Export Plug-In . SVG Version: 6.00 Build 0)  -->
<svg version="1.1" id="Layer_1" xmlns="http://www.w3.org/2000/svg" xmlns:xlink="http://www.w3.org/1999/xlink" x="0px" y="0px"
	 viewBox="0 0 32 32" style="enable-background:new 0 0 32 32;" xml:space="preserve">
<style type="text/css">
	.st0{fill:#FFFFFF;}
</style>
<path class="st0" d="M73,4.1c-6.6,0-12,5.4-12,12c0,6.1,4.6,11.2,10.5,11.9c0-2.7,0-7,0-8.7c0-0.2,0-0.3-0.2-0.3c-0.7,0-1.4,0-2.1,0
	C69,19,69,19,69,18.8c0-0.8,0-1.7,0-2.5c0-0.2,0.1-0.2,0.2-0.2c0.7,0,1.4,0,2.1,0c0.2,0,0.2,0,0.2-0.2c0-0.9,0-1.8,0-2.7
	c0.1-1.5,1.1-2.6,2.5-3c1.1-0.3,2.2-0.1,3.4,0c0.2,0,0.1,0.1,0.1,0.2c0,0.7,0,1.4,0,2c0,0.2,0,0.2-0.2,0.2c-0.4,0-0.9,0-1.3,0
	c-0.7,0-1.2,0.5-1.3,1.2c-0.1,0.6,0,1.3,0,1.9c0,0.2,0.1,0.3,0.3,0.3c0.8,0,1.5,0,2.3,0c0.1,0,0.2-0.1,0.2,0.1
	c-0.1,0.9-0.3,1.7-0.4,2.6c0,0.2-0.1,0.2-0.2,0.2c-0.6,0-1.2,0-1.9,0c-0.2,0-0.3,0.1-0.2,0.3c0,0.3,0,0.7,0,1c0,1.4,0,5.1,0,7.7
	C80.5,27.1,85,22.1,85,16.1C85,9.4,79.6,4.1,73,4.1z"/>
<path class="st0" d="M16,4C9.4,4,4,9.4,4,16c0,6.6,5.4,12,12,12c6.6,0,12-5.4,12-12C28,9.4,22.6,4,16,4z M16.2,11.7
	c0.4-0.9,1.1-1.4,2-1.6c0,0,0.1,0,0.1,0c0,0,0.1,0,0.1,0c0.2,1.5-1.3,3-2.5,2.8C16,12.4,16.1,12,16.2,11.7z M21,18.9
	c0,0.1-0.1,0.1-0.1,0.2c-0.2,0.4-0.4,0.9-0.7,1.3c-0.5,0.7-1,1.5-1.9,1.6c0,0-0.1,0-0.1,0c-0.4-0.1-0.8-0.3-1.3-0.4
	c-0.5-0.1-0.9-0.2-1.4,0c-0.4,0.1-0.8,0.3-1.2,0.4c-0.1,0-0.3,0-0.4,0c-0.5-0.1-0.9-0.5-1.2-0.8c-0.7-0.8-1.2-1.7-1.5-2.7
	c-0.1-0.5-0.2-1.1-0.3-1.6c0-0.3,0-0.6,0-0.8c0-0.3,0.1-0.5,0.1-0.8c0.4-1.7,2.2-3,4.1-2.2c0.6,0.3,1.2,0.3,1.8,0
	c0.6-0.2,1.1-0.4,1.8-0.3c0.8,0.1,1.5,0.5,2,1.2c-0.1,0.1-0.1,0.1-0.2,0.1c-1.4,1-1.5,2.9-0.3,4C20.4,18.5,20.8,18.6,21,18.9
	C21,18.8,21,18.8,21,18.9z"/>
</svg>
