<?xml version="1.0" encoding="utf-8"?>
<!-- Generator: Adobe Illustrator 25.3.1, SVG Export Plug-In . SVG Version: 6.00 Build 0)  -->
<svg version="1.1" id="Layer_1" xmlns="http://www.w3.org/2000/svg" xmlns:xlink="http://www.w3.org/1999/xlink" x="0px" y="0px"
	 viewBox="0 0 32 32" style="enable-background:new 0 0 32 32;" xml:space="preserve">
<style type="text/css">
	.st0{fill:#FFFFFF;}
</style>
<path class="st0" d="M16,4.1c-6.6,0-12,5.4-12,12c0,6.1,4.6,11.2,10.5,11.9c0-2.7,0-7,0-8.7c0-0.2,0-0.3-0.2-0.3c-0.7,0-1.4,0-2.1,0
	C12,19,12,19,12,18.8c0-0.8,0-1.7,0-2.5c0-0.2,0.1-0.2,0.2-0.2c0.7,0,1.4,0,2.1,0c0.2,0,0.2,0,0.2-0.2c0-0.9,0-1.8,0-2.7
	c0.1-1.5,1.1-2.6,2.5-3c1.1-0.3,2.2-0.1,3.4,0c0.2,0,0.1,0.1,0.1,0.2c0,0.7,0,1.4,0,2c0,0.2,0,0.2-0.2,0.2c-0.4,0-0.9,0-1.3,0
	c-0.7,0-1.2,0.5-1.3,1.2c-0.1,0.6,0,1.3,0,1.9c0,0.2,0.1,0.3,0.3,0.3c0.8,0,1.5,0,2.3,0c0.1,0,0.2-0.1,0.2,0.1
	c-0.1,0.9-0.3,1.7-0.4,2.6c0,0.2-0.1,0.2-0.2,0.2c-0.6,0-1.2,0-1.9,0c-0.2,0-0.3,0.1-0.2,0.3c0,0.3,0,0.7,0,1c0,1.4,0,5.1,0,7.7
	C23.5,27.1,28,22.1,28,16.1C28,9.4,22.6,4.1,16,4.1z"/>
</svg>
