<?xml version="1.0" encoding="utf-8"?>
<!-- Generator: Adobe Illustrator 25.3.1, SVG Export Plug-In . SVG Version: 6.00 Build 0)  -->
<svg version="1.1" id="Layer_1" xmlns="http://www.w3.org/2000/svg" xmlns:xlink="http://www.w3.org/1999/xlink" x="0px" y="0px"
	 viewBox="0 0 32 32" style="enable-background:new 0 0 32 32;" xml:space="preserve">
<style type="text/css">
	.st0{fill:#FFFFFF;}
</style>
<path class="st0" d="M5,5v22h22V5H5z M21,21.1c-1,0-1.9,0-2.9,0c-0.3,0-0.4-0.1-0.6-0.3c-1-1.4-2-2.8-3-4.2
	c-0.1-0.1-0.1-0.2-0.3-0.4c0,0.2,0,0.3,0,0.4c0,1.3,0,2.7,0,4c0,0.3-0.1,0.4-0.4,0.4c-1,0-2,0-2.9,0c-0.3,0-0.4-0.1-0.4-0.4
	c0-3.1,0-6.2,0-9.3c0-0.3,0.1-0.4,0.4-0.4c1,0,2,0,3,0c0.3,0,0.4,0.1,0.6,0.3c1,1.5,2,3,3.1,4.5c0.1,0.1,0.1,0.2,0.2,0.3
	c0-1.5,0-2.9,0-4.3c0-0.2,0-0.4,0-0.6c0-0.1,0.2-0.2,0.2-0.2c1.1,0,2.2,0,3.2,0c0.3,0,0.3,0.2,0.3,0.3c0,1.2,0,2.3,0,3.5
	c0,1.9,0,3.9,0,5.8C21.5,21,21.4,21.1,21,21.1z"/>
</svg>
