<?xml version="1.0" encoding="utf-8"?>
<!-- Generator: Adobe Illustrator 25.3.1, SVG Export Plug-In . SVG Version: 6.00 Build 0)  -->
<svg version="1.1" id="Layer_1" xmlns="http://www.w3.org/2000/svg" xmlns:xlink="http://www.w3.org/1999/xlink" x="0px" y="0px"
	 viewBox="0 0 32 32" style="enable-background:new 0 0 32 32;" xml:space="preserve">
<style type="text/css">
	.st0{fill:#FFFFFF;}
</style>
<g id="그룹_101" transform="translate(183.757 2585.685)">
	<path id="빼기_1" class="st0" d="M-175-2558.7h-0.1c-0.2-0.1-0.2-0.2-0.2-0.4l0,0c0.1-0.2,0.1-0.4,0.1-0.5l0,0
		c0.1-0.2,0.1-0.5,0.2-0.8c0.2-0.7,0.4-1.4,0.6-2.1v0l0,0l0.2-0.8l0,0c0,0,0,0,0,0c-0.1,0-0.1-0.1-0.2-0.1c-0.7-0.4-1.3-0.8-1.9-1.2
		c-0.6-0.5-1.1-1-1.6-1.6c-1.1-1.4-1.8-3.1-1.9-4.8c0-1.8,0.5-3.5,1.6-4.9c0.4-0.5,0.8-0.9,1.2-1.4c0.4-0.4,0.9-0.8,1.4-1.1
		c1-0.6,2.1-1.2,3.2-1.5c1.5-0.5,3-0.7,4.6-0.7c0.8,0,1.5,0.1,2.3,0.2c1.1,0.2,2.2,0.4,3.3,0.9c1.1,0.4,2,1,2.9,1.7
		c0.8,0.6,1.5,1.3,2.1,2.1c0.6,0.8,1,1.7,1.2,2.6c0.1,0.3,0.1,0.6,0.2,0.9c0,0.1,0.1,0.3,0.1,0.4v1.2c0,0,0,0,0,0.1c0,0,0,0.1,0,0.1
		c-0.1,1.1-0.4,2.1-1,3c-0.5,0.9-1.2,1.7-1.9,2.4c-0.8,0.7-1.6,1.3-2.5,1.7c-1,0.5-2.1,0.9-3.2,1.1c-1.1,0.2-2.2,0.4-3.3,0.4
		c-0.7,0-1.3,0-2-0.1h-0.1c-0.1,0-0.2,0-0.3,0.1c-0.3,0.2-0.6,0.4-0.9,0.6l0,0h0c-0.3,0.2-0.6,0.4-0.9,0.6c-0.3,0.2-0.5,0.4-0.8,0.5
		C-173.3-2559.6-174.2-2559.1-175-2558.7L-175-2558.7z M-175.1-2572.8L-175.1-2572.8v0.3c0,0.3,0,0.6,0,0.9v0c0,0.3,0,0.6,0,0.9
		c0,0.7,0,1.3,0,1.9c0,0.2,0.1,0.4,0.2,0.6c0.1,0.1,0.1,0.1,0.2,0.1c0.1,0.1,0.2,0.1,0.3,0.1c0.1,0,0.1,0,0.1,0s0.1,0,0.2-0.1
		c0.3-0.1,0.4-0.4,0.4-0.6c0-0.5,0-1,0-1.6c0-0.5,0-1,0-1.4v-1h0.8c0.1,0,0.2,0,0.3,0h0c0.4,0,0.6-0.3,0.7-0.7c0,0,0,0,0,0
		c0-0.4-0.3-0.6-0.7-0.6h-0.9h-0.8c-0.5,0-1.1,0-1.6,0h-0.2c-0.3,0-0.5,0.2-0.6,0.5c0,0.1,0,0.1,0,0.2c0,0.2,0.1,0.3,0.2,0.5
		c0.1,0.1,0.3,0.2,0.5,0.2h0.2h0.5L-175.1-2572.8z M-169.4-2569.2L-169.4-2569.2c0.1,0,0.2,0.1,0.3,0.2l0,0.1v0
		c0.1,0.2,0.1,0.4,0.2,0.6c0.1,0.1,0.2,0.2,0.3,0.3c0.1,0,0.2,0.1,0.3,0.1s0.2,0,0.3,0l0,0c0.2-0.1,0.4-0.3,0.4-0.5
		c0-0.1,0-0.1,0-0.2c-0.1-0.3-0.1-0.6-0.2-0.9c-0.2-0.7-0.5-1.3-0.8-2l0,0v0c-0.2-0.6-0.5-1.2-0.7-1.8c-0.1-0.4-0.5-0.8-0.9-0.8h0
		c-0.4,0-0.8,0.3-0.9,0.7c0,0,0,0,0,0.1c-0.5,1.3-1.1,2.7-1.6,4.2c0,0.1-0.1,0.2-0.1,0.4c0,0.1,0,0.1,0,0.2c0,0.3,0.2,0.5,0.4,0.6h0
		h0l0,0c0.1,0,0.2,0,0.2,0h0c0.2,0,0.5-0.1,0.6-0.3v0c0.1-0.2,0.1-0.4,0.2-0.6l0-0.1c0-0.1,0.1-0.2,0.2-0.2h0l0.4,0h0.4h0h0.4
		L-169.4-2569.2L-169.4-2569.2L-169.4-2569.2z M-162.8-2574.1c-0.2,0-0.4,0.1-0.5,0.2c-0.1,0.1-0.2,0.3-0.2,0.5c0,0.8,0,1.5,0,2.3
		s0,1.5,0,2.3c0,0.2,0.1,0.4,0.2,0.6c0.1,0.1,0.3,0.2,0.5,0.2l0,0c0.4,0,0.7-0.3,0.7-0.7c0,0,0,0,0,0c0-0.1,0-0.1,0-0.1v0
		c0-0.2,0-0.3,0-0.5c0-0.2,0-0.4,0-0.5c0,0,0,0,0,0c0-0.2,0.1-0.4,0.3-0.4c0,0,0.1,0.1,0.1,0.1c0.1,0.1,0.1,0.1,0.2,0.2
		c0.1,0.1,0.2,0.3,0.3,0.4l0,0l0,0c0.2,0.2,0.3,0.5,0.5,0.7c0.2,0.3,0.4,0.6,0.7,0.8l0,0c0.1,0.1,0.2,0.1,0.4,0.1h0
		c0.3,0,0.5-0.2,0.6-0.5c0,0,0,0,0,0c0-0.1,0-0.1,0-0.2c0-0.2-0.1-0.3-0.2-0.5l-0.1-0.2c-0.5-0.6-0.9-1.2-1.4-1.8
		c0-0.1-0.1-0.1-0.1-0.2c0-0.1,0-0.1,0.1-0.2l0.2-0.2c0.3-0.2,0.5-0.5,0.8-0.8c0.2-0.2,0.3-0.4,0.5-0.6c0.1-0.1,0.1-0.2,0.1-0.3
		c0-0.1-0.1-0.3-0.2-0.4l0,0c-0.1-0.1-0.3-0.2-0.5-0.2h0c-0.1,0-0.3,0.1-0.4,0.2c-0.2,0.2-0.5,0.4-0.7,0.6l-0.2,0.2
		c-0.2,0.2-0.5,0.5-0.7,0.8l0,0l-0.3,0.3l-0.1-0.1c0-0.1,0-0.3,0-0.4s0-0.3,0-0.4c0-0.2,0-0.4,0-0.6c0-0.2-0.1-0.4-0.2-0.5
		C-162.4-2574-162.6-2574.1-162.8-2574.1L-162.8-2574.1L-162.8-2574.1z M-166.6-2574.1L-166.6-2574.1c-0.4,0-0.7,0.4-0.7,0.8
		c0,0,0,0,0,0.1v0c0,0.2,0,0.4,0,0.6c0,0.4,0,0.9,0,1.3c0,0.4,0,0.8,0,1.2c0,0.1,0,0.2,0,0.3s0,0.2,0,0.3c0,0.2,0,0.5,0,0.8
		c0,0.2,0.1,0.4,0.2,0.5c0.1,0.1,0.3,0.1,0.5,0.1h0.9h1.2c0.1,0,0.2,0,0.3,0c0.3-0.1,0.4-0.3,0.5-0.6c0,0,0,0,0,0
		c0-0.3-0.1-0.5-0.4-0.6c-0.1,0-0.2-0.1-0.4-0.1h-0.3h-1.1v-0.3c0-0.3,0-0.7,0-1v-0.1c0-0.3,0-0.6,0-1c0-0.6,0-1.1,0-1.6
		C-165.8-2573.7-166.1-2574.1-166.6-2574.1C-166.5-2574.1-166.5-2574.1-166.6-2574.1C-166.6-2574.1-166.6-2574.1-166.6-2574.1z"/>
	<path id="패스_167" class="st0" d="M-170.3-2572.3l0.7,1.9h-1.4L-170.3-2572.3L-170.3-2572.3z"/>
</g>
</svg>
