<?xml version="1.0" encoding="utf-8"?>
<!-- Generator: Adobe Illustrator 25.3.1, SVG Export Plug-In . SVG Version: 6.00 Build 0)  -->
<svg version="1.1" id="Layer_1" xmlns="http://www.w3.org/2000/svg" xmlns:xlink="http://www.w3.org/1999/xlink" x="0px" y="0px"
	 viewBox="0 0 32 32" style="enable-background:new 0 0 32 32;" xml:space="preserve">
<style type="text/css">
	.st0{opacity:0.32;fill:#FFFFFF;}
	.st1{opacity:0.15;fill:#FFFFFF;}
	.st2{opacity:0;fill:#FFFFFF;}
	.st3{opacity:0.22;fill:#FFFFFF;}
	.st4{fill:#FFFFFF;}
</style>
<g>
	<path class="st0" d="M16.2,14.8C16.2,14.8,16.2,14.8,16.2,14.8c1.9,0,3.7,0,5.5,0c0,0,0.1,0,0.1,0c0.1,0,0.2,0.1,0.2,0.3
		c0,0.2,0.1,0.3,0.1,0.5c0,0.1,0,0.2,0,0.2c0,0.2,0,0.3,0,0.5c0,0.2,0,0.3,0,0.5c0,0.3-0.1,0.6-0.2,0.8c-0.1,0.5-0.3,1-0.6,1.5
		c-0.3,0.5-0.7,1-1.1,1.4c-0.1,0.1-0.2,0.2-0.3,0.2c0,0,0,0,0,0c-0.6-0.6-1.3-1.3-1.9-1.9c0,0,0,0,0,0c0.1-0.1,0.1-0.1,0.2-0.2
		c0.3-0.3,0.6-0.6,0.8-1c0,0,0,0,0,0c-0.9,0-1.8,0-2.7,0c-0.1,0-0.1,0-0.1-0.1C16.2,16.6,16.2,15.7,16.2,14.8
		C16.2,14.8,16.2,14.8,16.2,14.8z"/>
	<path class="st1" d="M13.2,17.1c0,0.1,0.1,0.2,0.1,0.3c0.1,0.3,0.3,0.6,0.6,0.9c0.3,0.3,0.6,0.6,1,0.8c0.3,0.1,0.6,0.2,0.9,0.3
		c0.2,0,0.3,0,0.5,0c0,0,0,0,0,0c0,0,0,0,0,0c0,0,0,0,0,0.1c0,0.6,0,1.2,0,1.7c0,0.3,0,0.6,0,0.9c0,0,0,0.1,0,0.1
		c-0.1,0-0.3,0-0.4,0c-0.1,0-0.2,0-0.3,0c-0.2,0-0.4-0.1-0.5-0.1c-0.5-0.1-0.9-0.3-1.4-0.5c-0.4-0.2-0.7-0.4-1.1-0.7
		c-0.5-0.4-1-0.9-1.3-1.5c0-0.1-0.1-0.1-0.1-0.2c0,0,0,0,0,0C11.8,18.5,12.4,17.8,13.2,17.1C13.1,17.1,13.1,17.1,13.2,17.1z"/>
	<path class="st1" d="M16.2,13c-0.1,0-0.1,0-0.2,0c-0.3,0-0.6,0.1-0.9,0.2c-0.9,0.3-1.6,1.1-1.9,2c0,0,0,0,0,0c0,0,0,0,0,0
		c-0.7-0.7-1.4-1.4-2-2c0,0,0,0,0,0c0.1-0.2,0.2-0.4,0.4-0.6c0.7-0.9,1.6-1.6,2.6-2c0.4-0.1,0.7-0.2,1.1-0.3c0.2,0,0.4-0.1,0.6-0.1
		c0.2,0,0.4,0,0.6,0c0,0,0,0,0,0c0,0,0,0-0.1,0c0,0-0.1,0-0.1,0c0,0,0,0,0,0c0,0,0,0,0,0.1C16.2,11.2,16.2,12.1,16.2,13
		C16.2,13,16.2,13,16.2,13z"/>
	<path class="st2" d="M11,13.1C11,13.2,11.1,13.2,11,13.1c0.7,0.7,1.4,1.4,2.1,2.1c0,0,0,0,0,0c0,0.1-0.1,0.2-0.1,0.3
		c0,0.2,0,0.3-0.1,0.5c0,0.1,0,0.3,0,0.4c0,0.2,0.1,0.4,0.1,0.6c0,0,0,0,0,0c0,0,0,0,0,0c-0.7,0.7-1.4,1.4-2,2c0,0,0,0,0,0
		c-0.1-0.1-0.1-0.2-0.2-0.3c-0.2-0.5-0.4-0.9-0.5-1.5c0-0.2-0.1-0.4-0.1-0.6c0-0.3-0.1-0.7,0-1c0-0.2,0-0.5,0.1-0.7
		c0.1-0.6,0.3-1.2,0.6-1.7C10.9,13.3,11,13.2,11,13.1z"/>
	<path class="st3" d="M16.2,13c0-0.5,0-0.9,0-1.4c0-0.5,0-0.9,0-1.4c0-0.1,0-0.1,0.1-0.1c0.1,0,0.1,0,0.2,0c0.1,0,0.2,0,0.3,0
		c0.2,0,0.4,0.1,0.6,0.1c0.6,0.1,1.2,0.3,1.7,0.6c0.3,0.2,0.6,0.4,0.9,0.6c0.2,0.1,0.2,0.4,0,0.5c-0.5,0.5-1,1-1.5,1.5
		c-0.1,0.1-0.3,0.1-0.5,0c-0.1-0.1-0.3-0.2-0.5-0.3c-0.3-0.2-0.6-0.3-1-0.3C16.5,13,16.3,13,16.2,13z"/>
	<path class="st3" d="M16.2,22.2c0-0.9,0-1.8,0-2.8c0,0,0,0,0,0c0,0,0,0,0,0c0,0,0,0,0,0c0.2,0,0.4,0,0.5-0.1
		c0.4-0.1,0.8-0.3,1.2-0.5c0,0,0,0,0,0c0,0,0,0,0,0c0.6,0.6,1.3,1.3,1.9,1.9c0,0,0,0,0,0c-0.2,0.1-0.3,0.3-0.5,0.4
		c-0.6,0.4-1.3,0.7-2,0.9c-0.3,0.1-0.5,0.1-0.8,0.1C16.6,22.2,16.4,22.2,16.2,22.2C16.2,22.2,16.2,22.2,16.2,22.2z"/>
	<path class="st3" d="M16.2,14.8c0,0.2,0,0.5,0,0.7c0,0.7,0,1.4,0,2.1c0,0.1,0,0.1,0.1,0.1c0.9,0,1.8,0,2.7,0c0,0,0,0,0.1,0
		c0,0,0,0-0.1,0c-0.9,0-1.8,0-2.7,0c-0.1,0-0.1,0-0.2,0c-0.1-0.1-0.2-0.2-0.2-0.3c0,0,0,0,0,0c0-0.7,0-1.4,0-2.1
		c0-0.1,0-0.2,0.1-0.2C16,14.8,16.1,14.8,16.2,14.8z"/>
</g>
<path class="st4" d="M16.2,4.2c-6.6,0-12,5.4-12,12c0,6.6,5.4,12,12,12s12-5.4,12-12C28.2,9.6,22.8,4.2,16.2,4.2z M22.2,16.8
	c0,0.3-0.1,0.6-0.2,0.8c-0.1,0.5-0.3,1-0.6,1.5c-0.3,0.5-0.7,1-1.1,1.4c-0.1,0.1-0.2,0.2-0.3,0.2c-0.2,0.1-0.3,0.3-0.5,0.4
	c-0.6,0.4-1.3,0.7-2,0.9c-0.3,0.1-0.5,0.1-0.8,0.1c-0.2,0-0.4,0-0.6,0c0,0,0,0,0,0c-0.1,0-0.3,0-0.4,0c-0.1,0-0.2,0-0.3,0
	c-0.2,0-0.4-0.1-0.5-0.1c-0.5-0.1-0.9-0.3-1.4-0.5c-0.4-0.2-0.7-0.4-1.1-0.7c-0.5-0.4-1-0.9-1.3-1.5c0-0.1-0.1-0.1-0.1-0.2
	c-0.1-0.1-0.1-0.2-0.2-0.3c-0.2-0.5-0.4-0.9-0.5-1.5c0-0.2-0.1-0.4-0.1-0.6c0-0.3-0.1-0.7,0-1c0-0.2,0-0.5,0.1-0.7
	c0.1-0.6,0.3-1.2,0.6-1.7c0-0.1,0.1-0.2,0.2-0.3c0.1-0.2,0.2-0.4,0.4-0.6c0.7-0.9,1.6-1.6,2.6-2c0.4-0.1,0.7-0.2,1.1-0.3
	c0.2,0,0.4-0.1,0.6-0.1c0.2,0,0.4,0,0.6,0c0,0,0,0,0,0c0.1,0,0.2,0,0.3,0c0.2,0,0.4,0.1,0.6,0.1c0.6,0.1,1.2,0.3,1.7,0.6
	c0.3,0.2,0.6,0.4,0.9,0.6c0.2,0.1,0.2,0.4,0,0.5c-0.5,0.5-1,1-1.5,1.5c-0.1,0.1-0.3,0.1-0.5,0c-0.1-0.1-0.3-0.2-0.5-0.3
	c-0.3-0.2-0.6-0.3-1-0.3c-0.1,0-0.3,0-0.4,0c-0.1,0-0.1,0-0.2,0c-0.3,0-0.6,0.1-0.9,0.2c-0.9,0.3-1.6,1.1-1.9,2c0,0,0,0,0,0
	c0,0.1-0.1,0.2-0.1,0.3c0,0.2,0,0.3-0.1,0.5c0,0.1,0,0.3,0,0.4c0,0.2,0.1,0.4,0.1,0.6c0,0,0,0,0,0c0,0.1,0.1,0.2,0.1,0.3
	c0.1,0.3,0.3,0.6,0.6,0.9c0.3,0.3,0.6,0.6,1,0.8c0.3,0.1,0.6,0.2,0.9,0.3c0.2,0,0.3,0,0.5,0c0,0,0,0,0,0c0.2,0,0.4,0,0.5-0.1
	c0.4-0.1,0.8-0.3,1.2-0.5c0,0,0,0,0,0c0.1-0.1,0.1-0.1,0.2-0.2c0.3-0.3,0.6-0.6,0.8-1c0,0,0,0-0.1,0c-0.9,0-1.8,0-2.7,0
	c-0.1,0-0.1,0-0.2,0c-0.1-0.1-0.2-0.2-0.2-0.3c0,0,0,0,0,0c0-0.7,0-1.4,0-2.1c0-0.1,0-0.2,0.1-0.2c0.1-0.1,0.2-0.1,0.3-0.1
	c0,0,0,0,0,0c1.8,0,3.7,0,5.5,0c0,0,0.1,0,0.1,0c0.1,0,0.2,0.1,0.2,0.3c0,0.2,0.1,0.3,0.1,0.5c0,0.1,0,0.2,0,0.2c0,0.2,0,0.3,0,0.5
	C22.2,16.5,22.2,16.6,22.2,16.8z"/>
</svg>
