<svg width="51" height="51" viewBox="0 0 51 51" fill="none" xmlns="http://www.w3.org/2000/svg">
<circle cx="25.5" cy="19.125" r="3.75" stroke="#5E5ADB" stroke-opacity="0.7" stroke-linecap="round"/>
<path d="M32.8774 17.25C33.3747 16.3887 34.1938 15.7602 35.1544 15.5028C36.1151 15.2454 37.1387 15.3801 38 15.8774C38.8613 16.3747 39.4898 17.1938 39.7472 18.1544C40.0046 19.1151 39.8699 20.1387 39.3726 21C38.8753 21.8613 38.0562 22.4898 37.0956 22.7472C36.1349 23.0046 35.1113 22.8699 34.25 22.3726C33.3887 21.8753 32.7602 21.0562 32.5028 20.0956C32.2454 19.1349 32.3801 18.1113 32.8774 17.25L32.8774 17.25Z" stroke="#5E5ADB" stroke-opacity="0.7"/>
<path d="M11.6274 17.25C12.1247 16.3887 12.9438 15.7602 13.9044 15.5028C14.8651 15.2454 15.8887 15.3801 16.75 15.8774C17.6113 16.3747 18.2398 17.1938 18.4972 18.1544C18.7546 19.1151 18.6199 20.1387 18.1226 21C17.6253 21.8613 16.8062 22.4898 15.8456 22.7472C14.8849 23.0046 13.8613 22.8699 13 22.3726C12.1387 21.8753 11.5102 21.0562 11.2528 20.0956C10.9954 19.1349 11.1301 18.1113 11.6274 17.25L11.6274 17.25Z" stroke="#5E5ADB" stroke-opacity="0.7"/>
<path d="M43.48 34.0687L43.9755 34.0016L43.48 34.0687ZM29.9624 28.019L29.6717 27.6121L29.1394 27.9925L29.6462 28.4063L29.9624 28.019ZM32.8653 34.0677L33.3618 34.0088L32.8653 34.0677ZM42.5623 34.5625H31.9374V35.5625H42.5623V34.5625ZM42.9845 34.1358C43.013 34.3459 42.8505 34.5625 42.5623 34.5625V35.5625C43.3787 35.5625 44.0953 34.8861 43.9755 34.0016L42.9845 34.1358ZM35.0624 27.0625C38.2526 27.0625 40.1344 28.3072 41.2694 29.7796C42.4234 31.2767 42.838 33.054 42.9845 34.1358L43.9755 34.0016C43.8182 32.84 43.3681 30.8642 42.0614 29.169C40.7356 27.4492 38.5604 26.0625 35.0624 26.0625V27.0625ZM30.2531 28.4258C31.3739 27.625 32.9181 27.0625 35.0624 27.0625V26.0625C32.7324 26.0625 30.9799 26.6776 29.6717 27.6121L30.2531 28.4258ZM29.6462 28.4063C31.601 30.0024 32.1947 32.6591 32.3687 34.1266L33.3618 34.0088C33.1816 32.4898 32.5517 29.4876 30.2786 27.6317L29.6462 28.4063ZM32.3687 34.1266C32.3947 34.3451 32.224 34.5625 31.9374 34.5625V35.5625C32.7554 35.5625 33.466 34.8872 33.3618 34.0088L32.3687 34.1266Z" fill="#5E5ADB" fill-opacity="0.7"/>
<path d="M21.0375 28.019L21.3537 28.4063L21.8606 27.9925L21.3282 27.6121L21.0375 28.019ZM7.5199 34.0687L8.01537 34.1358H8.01537L7.5199 34.0687ZM18.1346 34.0677L17.6381 34.0088V34.0088L18.1346 34.0677ZM15.9376 27.0625C18.0819 27.0625 19.626 27.625 20.7469 28.4258L21.3282 27.6121C20.02 26.6776 18.2675 26.0625 15.9376 26.0625V27.0625ZM8.01537 34.1358C8.1619 33.054 8.57651 31.2767 9.73059 29.7796C10.8656 28.3072 12.7473 27.0625 15.9376 27.0625V26.0625C12.4396 26.0625 10.2644 27.4492 8.9386 29.169C7.63186 30.8642 7.18176 32.84 7.02442 34.0016L8.01537 34.1358ZM8.4376 34.5625C8.1494 34.5625 7.98692 34.3459 8.01537 34.1358L7.02442 34.0016C6.90462 34.886 7.62122 35.5625 8.4376 35.5625V34.5625ZM19.0625 34.5625H8.4376V35.5625H19.0625V34.5625ZM19.0625 34.5625C18.7759 34.5625 18.6052 34.3451 18.6312 34.1266L17.6381 34.0088C17.5339 34.8872 18.2445 35.5625 19.0625 35.5625V34.5625ZM18.6312 34.1266C18.8052 32.6591 19.3989 30.0023 21.3537 28.4063L20.7213 27.6316C18.4482 29.4876 17.8183 32.4898 17.6381 34.0088L18.6312 34.1266Z" fill="#5E5ADB" fill-opacity="0.7"/>
<path d="M25.5 26.5625C31.3514 26.5625 32.5993 31.8237 32.8654 34.0677C32.9304 34.6161 32.4898 35.0625 31.9375 35.0625H19.0625C18.5102 35.0625 18.0696 34.6161 18.1346 34.0677C18.4007 31.8237 19.6486 26.5625 25.5 26.5625Z" stroke="#5E5ADB" stroke-opacity="0.7" stroke-linecap="round"/>
<path d="M39.3125 45.6875H44.1875C45.0159 45.6875 45.6875 45.0159 45.6875 44.1875V39.3125" stroke="#5E5ADB" stroke-opacity="0.7" stroke-linecap="round"/>
<path d="M39.3125 5.3125H44.1875C45.0159 5.3125 45.6875 5.98407 45.6875 6.8125V11.6875" stroke="#5E5ADB" stroke-opacity="0.7" stroke-linecap="round"/>
<path d="M11.6875 45.6875H6.8125C5.98407 45.6875 5.3125 45.0159 5.3125 44.1875V39.3125" stroke="#5E5ADB" stroke-opacity="0.7" stroke-linecap="round"/>
<path d="M11.6875 5.3125H6.8125C5.98407 5.3125 5.3125 5.98407 5.3125 6.8125V11.6875" stroke="#5E5ADB" stroke-opacity="0.7" stroke-linecap="round"/>
</svg>
