<svg width="54" height="54" viewBox="0 0 54 54" fill="none" xmlns="http://www.w3.org/2000/svg">
<g opacity="0.2" clip-path="url(#clip0_2238_22355)">
<path d="M27 4.5C14.58 4.5 4.5 14.58 4.5 27C4.5 39.42 14.58 49.5 27 49.5C39.42 49.5 49.5 39.42 49.5 27C49.5 14.58 39.42 4.5 27 4.5ZM15.9075 41.13C16.875 39.105 22.77 37.125 27 37.125C31.23 37.125 37.1475 39.105 38.0925 41.13C35.0325 43.56 31.185 45 27 45C22.815 45 18.9675 43.56 15.9075 41.13ZM41.31 37.8675C38.0925 33.9525 30.285 32.625 27 32.625C23.715 32.625 15.9075 33.9525 12.69 37.8675C10.395 34.8525 9 31.095 9 27C9 17.0775 17.0775 9 27 9C36.9225 9 45 17.0775 45 27C45 31.095 43.605 34.8525 41.31 37.8675ZM27 13.5C22.635 13.5 19.125 17.01 19.125 21.375C19.125 25.74 22.635 29.25 27 29.25C31.365 29.25 34.875 25.74 34.875 21.375C34.875 17.01 31.365 13.5 27 13.5ZM27 24.75C25.1325 24.75 23.625 23.2425 23.625 21.375C23.625 19.5075 25.1325 18 27 18C28.8675 18 30.375 19.5075 30.375 21.375C30.375 23.2425 28.8675 24.75 27 24.75Z" fill="#5E5ADB"/>
</g>
<defs>
<clipPath id="clip0_2238_22355">
<rect width="54" height="54" fill="white"/>
</clipPath>
</defs>
</svg>
