<svg width="51" height="52" viewBox="0 0 51 52" fill="none" xmlns="http://www.w3.org/2000/svg">
<path d="M33 17.6588C33 21.7774 29.6461 25.1234 25.5 25.1234C21.3539 25.1234 18 21.7774 18 17.6588C18 13.5401 21.3539 10.1941 25.5 10.1941C29.6461 10.1941 33 13.5401 33 17.6588Z" stroke="#5E5ADB" stroke-opacity="0.5" stroke-width="2" stroke-linecap="round"/>
<path d="M31.4692 17.1023C32.1813 15.8741 33.3549 14.9767 34.7328 14.609C36.1109 14.2413 37.5791 14.4339 38.8141 15.144C40.0489 15.8539 40.9487 17.0226 41.3171 18.3917C41.6855 19.7608 41.4928 21.2196 40.7808 22.4477C40.0687 23.6759 38.8951 24.5733 37.5172 24.941C36.1391 25.3087 34.6709 25.1161 33.4359 24.406C32.2011 23.6961 31.3013 22.5275 30.9329 21.1583C30.5645 19.7892 30.7572 18.3304 31.4692 17.1023L31.4692 17.1023Z" stroke="#5E5ADB" stroke-opacity="0.5" stroke-width="2"/>
<path d="M10.2192 17.1023C10.9313 15.8741 12.1049 14.9767 13.4828 14.609C14.8609 14.2413 16.3291 14.4339 17.5641 15.144C18.7989 15.8539 19.6987 17.0226 20.0671 18.3917C20.4355 19.7608 20.2428 21.2196 19.5308 22.4477C18.8187 23.6759 17.6451 24.5733 16.2672 24.941C14.8891 25.3087 13.4209 25.1161 12.1859 24.406C10.9511 23.6961 10.0513 22.5275 9.68288 21.1583C9.31451 19.7892 9.50723 18.3304 10.2192 17.1023L10.2192 17.1023Z" stroke="#5E5ADB" stroke-opacity="0.5" stroke-width="2"/>
<path d="M35.8734 38.8204L34.8932 39.0186L35.0554 39.8204H35.8734V38.8204ZM44.3993 37.713L43.4302 37.9595L44.3993 37.713ZM31.4092 31.8593L30.8059 31.0618L29.6428 31.9416L30.8826 32.7095L31.4092 31.8593ZM43.4916 37.8204H35.8734V39.8204H43.4916V37.8204ZM43.4302 37.9595C43.4276 37.9494 43.4254 37.9277 43.4317 37.901C43.4377 37.876 43.4486 37.857 43.4591 37.8445C43.4799 37.8196 43.4976 37.8204 43.4916 37.8204V39.8204C44.669 39.8204 45.6959 38.754 45.3685 37.4666L43.4302 37.9595ZM36.125 31.3557C38.6579 31.3557 40.3114 32.4513 41.4279 33.809C42.572 35.2002 43.1555 36.8792 43.4302 37.9595L45.3685 37.4666C45.0597 36.252 44.3819 34.2524 42.9727 32.5387C41.5358 30.7914 39.3439 29.3557 36.125 29.3557V31.3557ZM32.0124 32.6569C33.022 31.8932 34.3484 31.3557 36.125 31.3557V29.3557C33.9067 29.3557 32.1578 30.0392 30.8059 31.0618L32.0124 32.6569ZM30.8826 32.7095C33.4782 34.317 34.4987 37.0679 34.8932 39.0186L36.8535 38.6221C36.4147 36.4521 35.2213 33.0441 31.9357 31.0092L30.8826 32.7095Z" fill="#5E5ADB" fill-opacity="0.5"/>
<path d="M19.5907 31.8593L20.1172 32.7094L21.3571 31.9415L20.194 31.0617L19.5907 31.8593ZM6.60054 37.713L7.5697 37.9595L6.60054 37.713ZM15.1265 38.8204V39.8204H15.9445L16.1066 39.0186L15.1265 38.8204ZM14.875 31.3557C16.6515 31.3557 17.9779 31.8932 18.9875 32.6568L20.194 31.0617C18.8421 30.0392 17.0933 29.3557 14.875 29.3557V31.3557ZM7.5697 37.9595C7.84438 36.8792 8.42792 35.2002 9.57202 33.809C10.6885 32.4513 12.3421 31.3557 14.875 31.3557V29.3557C11.6561 29.3557 9.46413 30.7914 8.02727 32.5387C6.61798 34.2524 5.94022 36.252 5.63138 37.4666L7.5697 37.9595ZM7.50832 37.8204C7.50227 37.8204 7.52003 37.8196 7.54083 37.8445C7.55125 37.857 7.56221 37.876 7.56815 37.901C7.57449 37.9277 7.57226 37.9494 7.5697 37.9595L5.63138 37.4666C5.30403 38.754 6.33086 39.8204 7.50832 39.8204V37.8204ZM15.1265 37.8204H7.50832V39.8204H15.1265V37.8204ZM16.1066 39.0186C16.5011 37.0679 17.5216 34.317 20.1172 32.7094L19.0642 31.0091C15.7785 33.0441 14.5852 36.4521 14.1463 38.6221L16.1066 39.0186Z" fill="#5E5ADB" fill-opacity="0.5"/>
<path d="M25.5 30.3557C34.1116 30.3557 35.7435 37.3065 36.0527 39.9407C36.1171 40.4892 35.6773 40.9365 35.125 40.9365H15.875C15.3227 40.9365 14.8829 40.4892 14.9473 39.9407C15.2565 37.3065 16.8884 30.3557 25.5 30.3557Z" stroke="#5E5ADB" stroke-opacity="0.5" stroke-width="2" stroke-linecap="round"/>
</svg>
