<svg width="41" height="43" viewBox="0 0 41 43" fill="none" xmlns="http://www.w3.org/2000/svg">
<path d="M19.4999 23.7083V40.4729C19.4999 40.8718 19.4999 41.0712 19.3711 41.1426C19.2423 41.214 19.0732 41.1083 18.7349 40.8969L2.77325 30.9208C2.31373 30.6336 2.08397 30.49 1.95861 30.2639C1.83325 30.0377 1.83325 29.7667 1.83325 29.2248V12.6667M19.4999 23.7083L1.83325 12.6667M19.4999 23.7083L34.453 14.3627C35.6709 13.6015 36.2798 13.2209 36.2798 12.6667C36.2798 12.1124 35.6709 11.7318 34.453 10.9707L20.5599 2.2875C20.0444 1.96533 19.7867 1.80425 19.4999 1.80425C19.2131 1.80425 18.9554 1.96533 18.4399 2.2875L1.83325 12.6667" stroke="#5E5ADB" stroke-opacity="0.5" stroke-width="2" stroke-linejoin="round"/>
<path d="M36.1666 21.4999C36.1666 22.0522 36.6143 22.4999 37.1666 22.4999C37.7189 22.4999 38.1666 22.0522 38.1666 21.4999H36.1666ZM36.2266 12.0791L35.6966 12.9271L36.2266 12.0791ZM37.0412 12.7361L37.9159 12.2513L37.0412 12.7361ZM36.1666 13.7751V21.4999H38.1666V13.7751H36.1666ZM36.7566 11.2311L28.8633 6.29775L27.8033 7.99375L35.6966 12.9271L36.7566 11.2311ZM38.1666 13.7751C38.1666 13.5229 38.1676 13.2642 38.1464 13.0419C38.1231 12.7984 38.0682 12.5262 37.9159 12.2513L36.1666 13.2208C36.1396 13.1721 36.1474 13.1484 36.1555 13.2324C36.1655 13.3377 36.1666 13.4853 36.1666 13.7751H38.1666ZM35.6966 12.9271C35.9423 13.0807 36.067 13.1598 36.1508 13.2241C36.2178 13.2755 36.1936 13.2695 36.1666 13.2208L37.9159 12.2513C37.7635 11.9764 37.5617 11.7856 37.3676 11.6368C37.1904 11.501 36.9704 11.3647 36.7566 11.2311L35.6966 12.9271Z" fill="#5E5ADB" fill-opacity="0.5"/>
<circle cx="31.6458" cy="31.4376" r="5.52083" stroke="#5E5ADB" stroke-opacity="0.5" stroke-width="2"/>
<path d="M39.375 39.1667L36.0625 35.8542" stroke="#5E5ADB" stroke-opacity="0.5" stroke-width="2" stroke-linecap="round"/>
<path d="M24.4467 39.4627C24.9151 39.17 25.0575 38.553 24.7647 38.0847C24.472 37.6163 23.8551 37.474 23.3867 37.7667L24.4467 39.4627ZM19.5001 41.1958V42.1958V41.1958ZM18.9701 39.8646L11.1967 35.0062L10.1367 36.7022L17.9101 41.5606L18.9701 39.8646ZM21.1784 39.1469L20.0301 39.8646L21.0901 41.5606L22.2384 40.8429L21.1784 39.1469ZM23.3867 37.7667L22.2826 38.4568L23.3426 40.1528L24.4467 39.4627L23.3867 37.7667ZM22.2826 38.4568L21.1784 39.1469L22.2384 40.8429L23.3426 40.1528L22.2826 38.4568ZM17.9101 41.5606C18.1503 41.7107 18.3943 41.8647 18.6166 41.9734C18.8598 42.0923 19.1507 42.1958 19.5001 42.1958V40.1958C19.5627 40.1958 19.5813 40.2188 19.4951 40.1767C19.3879 40.1243 19.2454 40.0366 18.9701 39.8646L17.9101 41.5606ZM20.0301 39.8646C19.7548 40.0366 19.6122 40.1243 19.5051 40.1767C19.4189 40.2188 19.4375 40.1958 19.5001 40.1958V42.1958C19.8495 42.1958 20.1404 42.0923 20.3836 41.9734C20.6058 41.8647 20.8499 41.7107 21.0901 41.5606L20.0301 39.8646Z" fill="#5E5ADB" fill-opacity="0.5"/>
</svg>
