<svg width="32" height="41" viewBox="0 0 32 41" fill="none" xmlns="http://www.w3.org/2000/svg">
<path d="M23.2917 5.20825C26.2177 5.20825 27.6807 5.20825 28.7316 5.89642C29.1866 6.19433 29.5772 6.57715 29.8812 7.02301C30.5834 8.05292 30.5834 9.48664 30.5834 12.3541V31.7499C30.5834 35.5997 30.5834 37.5246 29.363 38.7206C28.1426 39.9166 26.1785 39.9166 22.2501 39.9166H9.75008C5.82171 39.9166 3.85752 39.9166 2.63714 38.7206C1.41675 37.5246 1.41675 35.5997 1.41675 31.7499V12.3541C1.41675 9.48664 1.41675 8.05292 2.11896 7.02301C2.42295 6.57715 2.81358 6.19433 3.26854 5.89642C4.31947 5.20825 5.78245 5.20825 8.70841 5.20825" stroke="#5E5ADB" stroke-opacity="0.5" stroke-width="2"/>
<path d="M9.75 5.20833C9.75 2.95317 11.6155 1.125 13.9167 1.125H18.0833C20.3845 1.125 22.25 2.95317 22.25 5.20833C22.25 7.4635 20.3845 9.29167 18.0833 9.29167H13.9167C11.6155 9.29167 9.75 7.4635 9.75 5.20833Z" stroke="#5E5ADB" stroke-opacity="0.5" stroke-width="2"/>
<path d="M9.75 19.5L22.25 19.5" stroke="#5E5ADB" stroke-opacity="0.5" stroke-width="2" stroke-linecap="round"/>
<path d="M9.75 27.6667L18.0833 27.6667" stroke="#5E5ADB" stroke-opacity="0.5" stroke-width="2" stroke-linecap="round"/>
</svg>
