<svg width="34" height="34" viewBox="0 0 34 34" fill="none" xmlns="http://www.w3.org/2000/svg">
<path d="M18.4999 4.83325V4.83325C22.8499 4.83325 25.0249 4.83325 26.7313 5.56931C28.8399 6.47885 30.521 8.15998 31.4305 10.2685C32.1666 11.9749 32.1666 14.1499 32.1666 18.4999V28.1666C32.1666 30.0522 32.1666 30.995 31.5808 31.5808C30.995 32.1666 30.0522 32.1666 28.1666 32.1666H18.4999C14.1499 32.1666 11.9749 32.1666 10.2685 31.4305C8.15998 30.521 6.47885 28.8399 5.56931 26.7313C4.83325 25.0249 4.83325 22.8499 4.83325 18.4999V18.4999" stroke="#5E5ADB" stroke-opacity="0.5" stroke-width="2"/>
<path d="M13.375 16.7917L23.625 16.7917" stroke="#5E5ADB" stroke-opacity="0.5" stroke-width="2" stroke-linecap="round" stroke-linejoin="round"/>
<path d="M6.54175 11.6667L6.54175 1.41675" stroke="#5E5ADB" stroke-opacity="0.5" stroke-width="2" stroke-linecap="round" stroke-linejoin="round"/>
<path d="M1.41675 6.54175L11.6667 6.54175" stroke="#5E5ADB" stroke-opacity="0.5" stroke-width="2" stroke-linecap="round" stroke-linejoin="round"/>
<path d="M18.5 23.625H23.625" stroke="#5E5ADB" stroke-opacity="0.5" stroke-width="2" stroke-linecap="round" stroke-linejoin="round"/>
</svg>
