<svg width="63" height="63" viewBox="0 0 63 63" fill="none" xmlns="http://www.w3.org/2000/svg">
<g opacity="0.2" clip-path="url(#clip0_2238_22349)">
<path d="M60.375 21C60.375 23.8875 58.0125 26.25 55.125 26.25C54.6525 26.25 54.2062 26.1975 53.7863 26.0663L44.4412 35.385C44.5725 35.805 44.625 36.2775 44.625 36.75C44.625 39.6375 42.2625 42 39.375 42C36.4875 42 34.125 39.6375 34.125 36.75C34.125 36.2775 34.1775 35.805 34.3088 35.385L27.615 28.6913C27.195 28.8225 26.7225 28.875 26.25 28.875C25.7775 28.875 25.305 28.8225 24.885 28.6913L12.9412 40.6612C13.0725 41.0812 13.125 41.5275 13.125 42C13.125 44.8875 10.7625 47.25 7.875 47.25C4.9875 47.25 2.625 44.8875 2.625 42C2.625 39.1125 4.9875 36.75 7.875 36.75C8.3475 36.75 8.79375 36.8025 9.21375 36.9338L21.1838 24.99C21.0525 24.57 21 24.0975 21 23.625C21 20.7375 23.3625 18.375 26.25 18.375C29.1375 18.375 31.5 20.7375 31.5 23.625C31.5 24.0975 31.4475 24.57 31.3162 24.99L38.01 31.6837C38.43 31.5525 38.9025 31.5 39.375 31.5C39.8475 31.5 40.32 31.5525 40.74 31.6837L50.0588 22.3388C49.9275 21.9188 49.875 21.4725 49.875 21C49.875 18.1125 52.2375 15.75 55.125 15.75C58.0125 15.75 60.375 18.1125 60.375 21ZM60.375 21C60.375 23.8875 58.0125 26.25 55.125 26.25C54.6525 26.25 54.2062 26.1975 53.7863 26.0663L44.4412 35.385C44.5725 35.805 44.625 36.2775 44.625 36.75C44.625 39.6375 42.2625 42 39.375 42C36.4875 42 34.125 39.6375 34.125 36.75C34.125 36.2775 34.1775 35.805 34.3088 35.385L27.615 28.6913C27.195 28.8225 26.7225 28.875 26.25 28.875C25.7775 28.875 25.305 28.8225 24.885 28.6913L12.9412 40.6612C13.0725 41.0812 13.125 41.5275 13.125 42C13.125 44.8875 10.7625 47.25 7.875 47.25C4.9875 47.25 2.625 44.8875 2.625 42C2.625 39.1125 4.9875 36.75 7.875 36.75C8.3475 36.75 8.79375 36.8025 9.21375 36.9338L21.1838 24.99C21.0525 24.57 21 24.0975 21 23.625C21 20.7375 23.3625 18.375 26.25 18.375C29.1375 18.375 31.5 20.7375 31.5 23.625C31.5 24.0975 31.4475 24.57 31.3162 24.99L38.01 31.6837C38.43 31.5525 38.9025 31.5 39.375 31.5C39.8475 31.5 40.32 31.5525 40.74 31.6837L50.0588 22.3388C49.9275 21.9188 49.875 21.4725 49.875 21C49.875 18.1125 52.2375 15.75 55.125 15.75C58.0125 15.75 60.375 18.1125 60.375 21Z" fill="#14804A"/>
</g>
<defs>
<clipPath id="clip0_2238_22349">
<rect width="63" height="63" fill="white"/>
</clipPath>
</defs>
</svg>
