<svg width="74" height="57" viewBox="0 0 74 57" fill="none" xmlns="http://www.w3.org/2000/svg">
<path d="M65.4091 22.5H56.8182V11H11V48.375H16.7273C16.7273 53.1475 20.5645 57 25.3182 57C30.0718 57 33.9091 53.1475 33.9091 48.375H51.0909C51.0909 53.1475 54.9282 57 59.6818 57C64.4355 57 68.2727 53.1475 68.2727 48.375H74V34L65.4091 22.5ZM25.3182 51.25C23.7432 51.25 22.4545 49.9562 22.4545 48.375C22.4545 46.7938 23.7432 45.5 25.3182 45.5C26.8932 45.5 28.1818 46.7938 28.1818 48.375C28.1818 49.9562 26.8932 51.25 25.3182 51.25ZM63.9773 26.8125L69.59 34H56.8182V26.8125H63.9773ZM59.6818 51.25C58.1068 51.25 56.8182 49.9562 56.8182 48.375C56.8182 46.7938 58.1068 45.5 59.6818 45.5C61.2568 45.5 62.5455 46.7938 62.5455 48.375C62.5455 49.9562 61.2568 51.25 59.6818 51.25Z" fill="#555555"/>
<rect x="11" y="11" width="13" height="17" fill="white"/>
<path d="M23.925 2.175L21.75 0L19.575 2.175L17.4 0L15.225 2.175L13.05 0L10.875 2.175L8.7 0L6.525 2.175L4.35 0V20.3H0V24.65C0 27.057 1.943 29 4.35 29H21.75C24.157 29 26.1 27.057 26.1 24.65V0L23.925 2.175ZM17.4 26.1H4.35C3.5525 26.1 2.9 25.4475 2.9 24.65V23.2H17.4V26.1ZM23.2 24.65C23.2 25.4475 22.5475 26.1 21.75 26.1C20.9525 26.1 20.3 25.4475 20.3 24.65V20.3H7.25V4.35H23.2V24.65Z" fill="#00299C"/>
<path d="M17.4002 7.25H8.7002V10.15H17.4002V7.25Z" fill="#00299C"/>
<path d="M17.4002 11.6H8.7002V14.5H17.4002V11.6Z" fill="#00299C"/>
<path d="M21.7501 7.25H18.8501V10.15H21.7501V7.25Z" fill="#00299C"/>
<path d="M21.7501 11.6H18.8501V14.5H21.7501V11.6Z" fill="#00299C"/>
</svg>
