<svg width="40" height="40" viewBox="0 0 40 40" fill="none" xmlns="http://www.w3.org/2000/svg">
<circle cx="20" cy="20" r="20" fill="#012754"/>
<g clip-path="url(#clip0_2184_21606)">
<path d="M30 14H25V22.18C24.69 22.07 24.35 22 24 22C22.34 22 21 23.34 21 25C21 26.66 22.34 28 24 28C25.66 28 27 26.66 27 25V16H30V14ZM23 14H11V16H23V14ZM23 18H11V20H23V18ZM19 22H11V24H19V22ZM23 25C23 24.45 23.45 24 24 24C24.55 24 25 24.45 25 25C25 25.55 24.55 26 24 26C23.45 26 23 25.55 23 25Z" fill="white"/>
</g>
<defs>
<clipPath id="clip0_2184_21606">
<rect width="24" height="24" fill="white" transform="translate(8 8)"/>
</clipPath>
</defs>
</svg>
