<?xml version="1.0"?>
<svg xmlns="http://www.w3.org/2000/svg" xmlns:xlink="http://www.w3.org/1999/xlink" version="1.1" width="1166px" height="1166px" viewBox="0 0 1166 1166"><defs><rect id="block" width="29" height="29" fill="#000000" fill-opacity="0.99212598425197"/></defs><rect x="0" y="0" width="1166" height="1166" fill="#ffffff" fill-opacity="0.99212598425197"/><use x="46" y="46" xlink:href="#block"/><use x="75" y="46" xlink:href="#block"/><use x="104" y="46" xlink:href="#block"/><use x="133" y="46" xlink:href="#block"/><use x="162" y="46" xlink:href="#block"/><use x="191" y="46" xlink:href="#block"/><use x="220" y="46" xlink:href="#block"/><use x="307" y="46" xlink:href="#block"/><use x="394" y="46" xlink:href="#block"/><use x="423" y="46" xlink:href="#block"/><use x="539" y="46" xlink:href="#block"/><use x="597" y="46" xlink:href="#block"/><use x="626" y="46" xlink:href="#block"/><use x="655" y="46" xlink:href="#block"/><use x="684" y="46" xlink:href="#block"/><use x="713" y="46" xlink:href="#block"/><use x="771" y="46" xlink:href="#block"/><use x="800" y="46" xlink:href="#block"/><use x="858" y="46" xlink:href="#block"/><use x="916" y="46" xlink:href="#block"/><use x="945" y="46" xlink:href="#block"/><use x="974" y="46" xlink:href="#block"/><use x="1003" y="46" xlink:href="#block"/><use x="1032" y="46" xlink:href="#block"/><use x="1061" y="46" xlink:href="#block"/><use x="1090" y="46" xlink:href="#block"/><use x="46" y="75" xlink:href="#block"/><use x="220" y="75" xlink:href="#block"/><use x="278" y="75" xlink:href="#block"/><use x="336" y="75" xlink:href="#block"/><use x="365" y="75" xlink:href="#block"/><use x="423" y="75" xlink:href="#block"/><use x="510" y="75" xlink:href="#block"/><use x="626" y="75" xlink:href="#block"/><use x="655" y="75" xlink:href="#block"/><use x="713" y="75" xlink:href="#block"/><use x="829" y="75" xlink:href="#block"/><use x="916" y="75" xlink:href="#block"/><use x="1090" y="75" xlink:href="#block"/><use x="46" y="104" xlink:href="#block"/><use x="104" y="104" xlink:href="#block"/><use x="133" y="104" xlink:href="#block"/><use x="162" y="104" xlink:href="#block"/><use x="220" y="104" xlink:href="#block"/><use x="307" y="104" xlink:href="#block"/><use x="365" y="104" xlink:href="#block"/><use x="394" y="104" xlink:href="#block"/><use x="481" y="104" xlink:href="#block"/><use x="510" y="104" xlink:href="#block"/><use x="539" y="104" xlink:href="#block"/><use x="568" y="104" xlink:href="#block"/><use x="626" y="104" xlink:href="#block"/><use x="655" y="104" xlink:href="#block"/><use x="684" y="104" xlink:href="#block"/><use x="713" y="104" xlink:href="#block"/><use x="742" y="104" xlink:href="#block"/><use x="771" y="104" xlink:href="#block"/><use x="916" y="104" xlink:href="#block"/><use x="974" y="104" xlink:href="#block"/><use x="1003" y="104" xlink:href="#block"/><use x="1032" y="104" xlink:href="#block"/><use x="1090" y="104" xlink:href="#block"/><use x="46" y="133" xlink:href="#block"/><use x="104" y="133" xlink:href="#block"/><use x="133" y="133" xlink:href="#block"/><use x="162" y="133" xlink:href="#block"/><use x="220" y="133" xlink:href="#block"/><use x="307" y="133" xlink:href="#block"/><use x="423" y="133" xlink:href="#block"/><use x="510" y="133" xlink:href="#block"/><use x="539" y="133" xlink:href="#block"/><use x="568" y="133" xlink:href="#block"/><use x="597" y="133" xlink:href="#block"/><use x="655" y="133" xlink:href="#block"/><use x="684" y="133" xlink:href="#block"/><use x="713" y="133" xlink:href="#block"/><use x="829" y="133" xlink:href="#block"/><use x="858" y="133" xlink:href="#block"/><use x="916" y="133" xlink:href="#block"/><use x="974" y="133" xlink:href="#block"/><use x="1003" y="133" xlink:href="#block"/><use x="1032" y="133" xlink:href="#block"/><use x="1090" y="133" xlink:href="#block"/><use x="46" y="162" xlink:href="#block"/><use x="104" y="162" xlink:href="#block"/><use x="133" y="162" xlink:href="#block"/><use x="162" y="162" xlink:href="#block"/><use x="220" y="162" xlink:href="#block"/><use x="307" y="162" xlink:href="#block"/><use x="394" y="162" xlink:href="#block"/><use x="452" y="162" xlink:href="#block"/><use x="626" y="162" xlink:href="#block"/><use x="713" y="162" xlink:href="#block"/><use x="742" y="162" xlink:href="#block"/><use x="771" y="162" xlink:href="#block"/><use x="829" y="162" xlink:href="#block"/><use x="916" y="162" xlink:href="#block"/><use x="974" y="162" xlink:href="#block"/><use x="1003" y="162" xlink:href="#block"/><use x="1032" y="162" xlink:href="#block"/><use x="1090" y="162" xlink:href="#block"/><use x="46" y="191" xlink:href="#block"/><use x="220" y="191" xlink:href="#block"/><use x="278" y="191" xlink:href="#block"/><use x="307" y="191" xlink:href="#block"/><use x="394" y="191" xlink:href="#block"/><use x="423" y="191" xlink:href="#block"/><use x="452" y="191" xlink:href="#block"/><use x="481" y="191" xlink:href="#block"/><use x="626" y="191" xlink:href="#block"/><use x="655" y="191" xlink:href="#block"/><use x="684" y="191" xlink:href="#block"/><use x="742" y="191" xlink:href="#block"/><use x="771" y="191" xlink:href="#block"/><use x="800" y="191" xlink:href="#block"/><use x="829" y="191" xlink:href="#block"/><use x="858" y="191" xlink:href="#block"/><use x="916" y="191" xlink:href="#block"/><use x="1090" y="191" xlink:href="#block"/><use x="46" y="220" xlink:href="#block"/><use x="75" y="220" xlink:href="#block"/><use x="104" y="220" xlink:href="#block"/><use x="133" y="220" xlink:href="#block"/><use x="162" y="220" xlink:href="#block"/><use x="191" y="220" xlink:href="#block"/><use x="220" y="220" xlink:href="#block"/><use x="278" y="220" xlink:href="#block"/><use x="336" y="220" xlink:href="#block"/><use x="394" y="220" xlink:href="#block"/><use x="452" y="220" xlink:href="#block"/><use x="510" y="220" xlink:href="#block"/><use x="568" y="220" xlink:href="#block"/><use x="626" y="220" xlink:href="#block"/><use x="684" y="220" xlink:href="#block"/><use x="742" y="220" xlink:href="#block"/><use x="800" y="220" xlink:href="#block"/><use x="858" y="220" xlink:href="#block"/><use x="916" y="220" xlink:href="#block"/><use x="945" y="220" xlink:href="#block"/><use x="974" y="220" xlink:href="#block"/><use x="1003" y="220" xlink:href="#block"/><use x="1032" y="220" xlink:href="#block"/><use x="1061" y="220" xlink:href="#block"/><use x="1090" y="220" xlink:href="#block"/><use x="278" y="249" xlink:href="#block"/><use x="307" y="249" xlink:href="#block"/><use x="336" y="249" xlink:href="#block"/><use x="365" y="249" xlink:href="#block"/><use x="510" y="249" xlink:href="#block"/><use x="684" y="249" xlink:href="#block"/><use x="713" y="249" xlink:href="#block"/><use x="742" y="249" xlink:href="#block"/><use x="858" y="249" xlink:href="#block"/><use x="162" y="278" xlink:href="#block"/><use x="191" y="278" xlink:href="#block"/><use x="220" y="278" xlink:href="#block"/><use x="249" y="278" xlink:href="#block"/><use x="336" y="278" xlink:href="#block"/><use x="365" y="278" xlink:href="#block"/><use x="394" y="278" xlink:href="#block"/><use x="452" y="278" xlink:href="#block"/><use x="510" y="278" xlink:href="#block"/><use x="539" y="278" xlink:href="#block"/><use x="626" y="278" xlink:href="#block"/><use x="742" y="278" xlink:href="#block"/><use x="771" y="278" xlink:href="#block"/><use x="800" y="278" xlink:href="#block"/><use x="858" y="278" xlink:href="#block"/><use x="916" y="278" xlink:href="#block"/><use x="945" y="278" xlink:href="#block"/><use x="1061" y="278" xlink:href="#block"/><use x="46" y="307" xlink:href="#block"/><use x="104" y="307" xlink:href="#block"/><use x="133" y="307" xlink:href="#block"/><use x="307" y="307" xlink:href="#block"/><use x="394" y="307" xlink:href="#block"/><use x="481" y="307" xlink:href="#block"/><use x="539" y="307" xlink:href="#block"/><use x="568" y="307" xlink:href="#block"/><use x="655" y="307" xlink:href="#block"/><use x="771" y="307" xlink:href="#block"/><use x="800" y="307" xlink:href="#block"/><use x="858" y="307" xlink:href="#block"/><use x="887" y="307" xlink:href="#block"/><use x="974" y="307" xlink:href="#block"/><use x="1061" y="307" xlink:href="#block"/><use x="104" y="336" xlink:href="#block"/><use x="133" y="336" xlink:href="#block"/><use x="162" y="336" xlink:href="#block"/><use x="191" y="336" xlink:href="#block"/><use x="220" y="336" xlink:href="#block"/><use x="249" y="336" xlink:href="#block"/><use x="278" y="336" xlink:href="#block"/><use x="307" y="336" xlink:href="#block"/><use x="452" y="336" xlink:href="#block"/><use x="510" y="336" xlink:href="#block"/><use x="539" y="336" xlink:href="#block"/><use x="568" y="336" xlink:href="#block"/><use x="597" y="336" xlink:href="#block"/><use x="626" y="336" xlink:href="#block"/><use x="655" y="336" xlink:href="#block"/><use x="713" y="336" xlink:href="#block"/><use x="771" y="336" xlink:href="#block"/><use x="829" y="336" xlink:href="#block"/><use x="945" y="336" xlink:href="#block"/><use x="974" y="336" xlink:href="#block"/><use x="1090" y="336" xlink:href="#block"/><use x="191" y="365" xlink:href="#block"/><use x="249" y="365" xlink:href="#block"/><use x="336" y="365" xlink:href="#block"/><use x="365" y="365" xlink:href="#block"/><use x="568" y="365" xlink:href="#block"/><use x="655" y="365" xlink:href="#block"/><use x="684" y="365" xlink:href="#block"/><use x="713" y="365" xlink:href="#block"/><use x="742" y="365" xlink:href="#block"/><use x="771" y="365" xlink:href="#block"/><use x="858" y="365" xlink:href="#block"/><use x="916" y="365" xlink:href="#block"/><use x="1003" y="365" xlink:href="#block"/><use x="1032" y="365" xlink:href="#block"/><use x="1061" y="365" xlink:href="#block"/><use x="1090" y="365" xlink:href="#block"/><use x="46" y="394" xlink:href="#block"/><use x="220" y="394" xlink:href="#block"/><use x="307" y="394" xlink:href="#block"/><use x="365" y="394" xlink:href="#block"/><use x="423" y="394" xlink:href="#block"/><use x="452" y="394" xlink:href="#block"/><use x="510" y="394" xlink:href="#block"/><use x="539" y="394" xlink:href="#block"/><use x="597" y="394" xlink:href="#block"/><use x="626" y="394" xlink:href="#block"/><use x="655" y="394" xlink:href="#block"/><use x="684" y="394" xlink:href="#block"/><use x="713" y="394" xlink:href="#block"/><use x="742" y="394" xlink:href="#block"/><use x="858" y="394" xlink:href="#block"/><use x="887" y="394" xlink:href="#block"/><use x="916" y="394" xlink:href="#block"/><use x="974" y="394" xlink:href="#block"/><use x="1061" y="394" xlink:href="#block"/><use x="1090" y="394" xlink:href="#block"/><use x="46" y="423" xlink:href="#block"/><use x="75" y="423" xlink:href="#block"/><use x="104" y="423" xlink:href="#block"/><use x="162" y="423" xlink:href="#block"/><use x="191" y="423" xlink:href="#block"/><use x="278" y="423" xlink:href="#block"/><use x="307" y="423" xlink:href="#block"/><use x="336" y="423" xlink:href="#block"/><use x="365" y="423" xlink:href="#block"/><use x="423" y="423" xlink:href="#block"/><use x="452" y="423" xlink:href="#block"/><use x="510" y="423" xlink:href="#block"/><use x="568" y="423" xlink:href="#block"/><use x="655" y="423" xlink:href="#block"/><use x="771" y="423" xlink:href="#block"/><use x="829" y="423" xlink:href="#block"/><use x="858" y="423" xlink:href="#block"/><use x="916" y="423" xlink:href="#block"/><use x="945" y="423" xlink:href="#block"/><use x="974" y="423" xlink:href="#block"/><use x="1090" y="423" xlink:href="#block"/><use x="75" y="452" xlink:href="#block"/><use x="133" y="452" xlink:href="#block"/><use x="191" y="452" xlink:href="#block"/><use x="220" y="452" xlink:href="#block"/><use x="249" y="452" xlink:href="#block"/><use x="278" y="452" xlink:href="#block"/><use x="307" y="452" xlink:href="#block"/><use x="336" y="452" xlink:href="#block"/><use x="394" y="452" xlink:href="#block"/><use x="423" y="452" xlink:href="#block"/><use x="481" y="452" xlink:href="#block"/><use x="568" y="452" xlink:href="#block"/><use x="597" y="452" xlink:href="#block"/><use x="684" y="452" xlink:href="#block"/><use x="742" y="452" xlink:href="#block"/><use x="771" y="452" xlink:href="#block"/><use x="800" y="452" xlink:href="#block"/><use x="858" y="452" xlink:href="#block"/><use x="974" y="452" xlink:href="#block"/><use x="1003" y="452" xlink:href="#block"/><use x="1061" y="452" xlink:href="#block"/><use x="46" y="481" xlink:href="#block"/><use x="75" y="481" xlink:href="#block"/><use x="133" y="481" xlink:href="#block"/><use x="249" y="481" xlink:href="#block"/><use x="307" y="481" xlink:href="#block"/><use x="365" y="481" xlink:href="#block"/><use x="394" y="481" xlink:href="#block"/><use x="452" y="481" xlink:href="#block"/><use x="510" y="481" xlink:href="#block"/><use x="539" y="481" xlink:href="#block"/><use x="568" y="481" xlink:href="#block"/><use x="626" y="481" xlink:href="#block"/><use x="655" y="481" xlink:href="#block"/><use x="684" y="481" xlink:href="#block"/><use x="742" y="481" xlink:href="#block"/><use x="858" y="481" xlink:href="#block"/><use x="887" y="481" xlink:href="#block"/><use x="916" y="481" xlink:href="#block"/><use x="945" y="481" xlink:href="#block"/><use x="1032" y="481" xlink:href="#block"/><use x="1090" y="481" xlink:href="#block"/><use x="46" y="510" xlink:href="#block"/><use x="75" y="510" xlink:href="#block"/><use x="162" y="510" xlink:href="#block"/><use x="191" y="510" xlink:href="#block"/><use x="220" y="510" xlink:href="#block"/><use x="278" y="510" xlink:href="#block"/><use x="510" y="510" xlink:href="#block"/><use x="539" y="510" xlink:href="#block"/><use x="597" y="510" xlink:href="#block"/><use x="684" y="510" xlink:href="#block"/><use x="713" y="510" xlink:href="#block"/><use x="742" y="510" xlink:href="#block"/><use x="771" y="510" xlink:href="#block"/><use x="916" y="510" xlink:href="#block"/><use x="945" y="510" xlink:href="#block"/><use x="1003" y="510" xlink:href="#block"/><use x="1032" y="510" xlink:href="#block"/><use x="1061" y="510" xlink:href="#block"/><use x="1090" y="510" xlink:href="#block"/><use x="249" y="539" xlink:href="#block"/><use x="278" y="539" xlink:href="#block"/><use x="394" y="539" xlink:href="#block"/><use x="452" y="539" xlink:href="#block"/><use x="510" y="539" xlink:href="#block"/><use x="539" y="539" xlink:href="#block"/><use x="568" y="539" xlink:href="#block"/><use x="655" y="539" xlink:href="#block"/><use x="742" y="539" xlink:href="#block"/><use x="771" y="539" xlink:href="#block"/><use x="887" y="539" xlink:href="#block"/><use x="916" y="539" xlink:href="#block"/><use x="1003" y="539" xlink:href="#block"/><use x="1090" y="539" xlink:href="#block"/><use x="46" y="568" xlink:href="#block"/><use x="75" y="568" xlink:href="#block"/><use x="133" y="568" xlink:href="#block"/><use x="220" y="568" xlink:href="#block"/><use x="249" y="568" xlink:href="#block"/><use x="307" y="568" xlink:href="#block"/><use x="394" y="568" xlink:href="#block"/><use x="423" y="568" xlink:href="#block"/><use x="452" y="568" xlink:href="#block"/><use x="481" y="568" xlink:href="#block"/><use x="510" y="568" xlink:href="#block"/><use x="568" y="568" xlink:href="#block"/><use x="597" y="568" xlink:href="#block"/><use x="626" y="568" xlink:href="#block"/><use x="655" y="568" xlink:href="#block"/><use x="771" y="568" xlink:href="#block"/><use x="800" y="568" xlink:href="#block"/><use x="829" y="568" xlink:href="#block"/><use x="974" y="568" xlink:href="#block"/><use x="46" y="597" xlink:href="#block"/><use x="133" y="597" xlink:href="#block"/><use x="249" y="597" xlink:href="#block"/><use x="278" y="597" xlink:href="#block"/><use x="307" y="597" xlink:href="#block"/><use x="394" y="597" xlink:href="#block"/><use x="452" y="597" xlink:href="#block"/><use x="510" y="597" xlink:href="#block"/><use x="539" y="597" xlink:href="#block"/><use x="626" y="597" xlink:href="#block"/><use x="684" y="597" xlink:href="#block"/><use x="713" y="597" xlink:href="#block"/><use x="742" y="597" xlink:href="#block"/><use x="916" y="597" xlink:href="#block"/><use x="1003" y="597" xlink:href="#block"/><use x="1032" y="597" xlink:href="#block"/><use x="1061" y="597" xlink:href="#block"/><use x="1090" y="597" xlink:href="#block"/><use x="46" y="626" xlink:href="#block"/><use x="75" y="626" xlink:href="#block"/><use x="104" y="626" xlink:href="#block"/><use x="133" y="626" xlink:href="#block"/><use x="162" y="626" xlink:href="#block"/><use x="191" y="626" xlink:href="#block"/><use x="220" y="626" xlink:href="#block"/><use x="249" y="626" xlink:href="#block"/><use x="336" y="626" xlink:href="#block"/><use x="365" y="626" xlink:href="#block"/><use x="394" y="626" xlink:href="#block"/><use x="539" y="626" xlink:href="#block"/><use x="568" y="626" xlink:href="#block"/><use x="771" y="626" xlink:href="#block"/><use x="858" y="626" xlink:href="#block"/><use x="916" y="626" xlink:href="#block"/><use x="945" y="626" xlink:href="#block"/><use x="974" y="626" xlink:href="#block"/><use x="133" y="655" xlink:href="#block"/><use x="191" y="655" xlink:href="#block"/><use x="278" y="655" xlink:href="#block"/><use x="365" y="655" xlink:href="#block"/><use x="423" y="655" xlink:href="#block"/><use x="481" y="655" xlink:href="#block"/><use x="510" y="655" xlink:href="#block"/><use x="597" y="655" xlink:href="#block"/><use x="684" y="655" xlink:href="#block"/><use x="800" y="655" xlink:href="#block"/><use x="829" y="655" xlink:href="#block"/><use x="916" y="655" xlink:href="#block"/><use x="974" y="655" xlink:href="#block"/><use x="1003" y="655" xlink:href="#block"/><use x="1090" y="655" xlink:href="#block"/><use x="46" y="684" xlink:href="#block"/><use x="104" y="684" xlink:href="#block"/><use x="133" y="684" xlink:href="#block"/><use x="162" y="684" xlink:href="#block"/><use x="191" y="684" xlink:href="#block"/><use x="220" y="684" xlink:href="#block"/><use x="249" y="684" xlink:href="#block"/><use x="365" y="684" xlink:href="#block"/><use x="423" y="684" xlink:href="#block"/><use x="452" y="684" xlink:href="#block"/><use x="481" y="684" xlink:href="#block"/><use x="539" y="684" xlink:href="#block"/><use x="568" y="684" xlink:href="#block"/><use x="597" y="684" xlink:href="#block"/><use x="655" y="684" xlink:href="#block"/><use x="684" y="684" xlink:href="#block"/><use x="742" y="684" xlink:href="#block"/><use x="771" y="684" xlink:href="#block"/><use x="800" y="684" xlink:href="#block"/><use x="829" y="684" xlink:href="#block"/><use x="887" y="684" xlink:href="#block"/><use x="945" y="684" xlink:href="#block"/><use x="974" y="684" xlink:href="#block"/><use x="1003" y="684" xlink:href="#block"/><use x="46" y="713" xlink:href="#block"/><use x="75" y="713" xlink:href="#block"/><use x="104" y="713" xlink:href="#block"/><use x="249" y="713" xlink:href="#block"/><use x="336" y="713" xlink:href="#block"/><use x="394" y="713" xlink:href="#block"/><use x="481" y="713" xlink:href="#block"/><use x="568" y="713" xlink:href="#block"/><use x="597" y="713" xlink:href="#block"/><use x="626" y="713" xlink:href="#block"/><use x="655" y="713" xlink:href="#block"/><use x="684" y="713" xlink:href="#block"/><use x="713" y="713" xlink:href="#block"/><use x="771" y="713" xlink:href="#block"/><use x="916" y="713" xlink:href="#block"/><use x="945" y="713" xlink:href="#block"/><use x="1090" y="713" xlink:href="#block"/><use x="104" y="742" xlink:href="#block"/><use x="133" y="742" xlink:href="#block"/><use x="162" y="742" xlink:href="#block"/><use x="191" y="742" xlink:href="#block"/><use x="220" y="742" xlink:href="#block"/><use x="249" y="742" xlink:href="#block"/><use x="307" y="742" xlink:href="#block"/><use x="423" y="742" xlink:href="#block"/><use x="452" y="742" xlink:href="#block"/><use x="481" y="742" xlink:href="#block"/><use x="510" y="742" xlink:href="#block"/><use x="597" y="742" xlink:href="#block"/><use x="626" y="742" xlink:href="#block"/><use x="684" y="742" xlink:href="#block"/><use x="713" y="742" xlink:href="#block"/><use x="742" y="742" xlink:href="#block"/><use x="771" y="742" xlink:href="#block"/><use x="858" y="742" xlink:href="#block"/><use x="887" y="742" xlink:href="#block"/><use x="916" y="742" xlink:href="#block"/><use x="945" y="742" xlink:href="#block"/><use x="974" y="742" xlink:href="#block"/><use x="1003" y="742" xlink:href="#block"/><use x="1090" y="742" xlink:href="#block"/><use x="46" y="771" xlink:href="#block"/><use x="75" y="771" xlink:href="#block"/><use x="104" y="771" xlink:href="#block"/><use x="133" y="771" xlink:href="#block"/><use x="191" y="771" xlink:href="#block"/><use x="249" y="771" xlink:href="#block"/><use x="336" y="771" xlink:href="#block"/><use x="365" y="771" xlink:href="#block"/><use x="452" y="771" xlink:href="#block"/><use x="539" y="771" xlink:href="#block"/><use x="568" y="771" xlink:href="#block"/><use x="597" y="771" xlink:href="#block"/><use x="771" y="771" xlink:href="#block"/><use x="800" y="771" xlink:href="#block"/><use x="887" y="771" xlink:href="#block"/><use x="945" y="771" xlink:href="#block"/><use x="1061" y="771" xlink:href="#block"/><use x="133" y="800" xlink:href="#block"/><use x="220" y="800" xlink:href="#block"/><use x="249" y="800" xlink:href="#block"/><use x="481" y="800" xlink:href="#block"/><use x="626" y="800" xlink:href="#block"/><use x="771" y="800" xlink:href="#block"/><use x="945" y="800" xlink:href="#block"/><use x="974" y="800" xlink:href="#block"/><use x="1061" y="800" xlink:href="#block"/><use x="162" y="829" xlink:href="#block"/><use x="191" y="829" xlink:href="#block"/><use x="307" y="829" xlink:href="#block"/><use x="336" y="829" xlink:href="#block"/><use x="626" y="829" xlink:href="#block"/><use x="742" y="829" xlink:href="#block"/><use x="771" y="829" xlink:href="#block"/><use x="858" y="829" xlink:href="#block"/><use x="916" y="829" xlink:href="#block"/><use x="1032" y="829" xlink:href="#block"/><use x="1061" y="829" xlink:href="#block"/><use x="1090" y="829" xlink:href="#block"/><use x="46" y="858" xlink:href="#block"/><use x="75" y="858" xlink:href="#block"/><use x="104" y="858" xlink:href="#block"/><use x="162" y="858" xlink:href="#block"/><use x="191" y="858" xlink:href="#block"/><use x="220" y="858" xlink:href="#block"/><use x="249" y="858" xlink:href="#block"/><use x="278" y="858" xlink:href="#block"/><use x="365" y="858" xlink:href="#block"/><use x="481" y="858" xlink:href="#block"/><use x="510" y="858" xlink:href="#block"/><use x="568" y="858" xlink:href="#block"/><use x="597" y="858" xlink:href="#block"/><use x="626" y="858" xlink:href="#block"/><use x="655" y="858" xlink:href="#block"/><use x="684" y="858" xlink:href="#block"/><use x="713" y="858" xlink:href="#block"/><use x="858" y="858" xlink:href="#block"/><use x="887" y="858" xlink:href="#block"/><use x="916" y="858" xlink:href="#block"/><use x="945" y="858" xlink:href="#block"/><use x="974" y="858" xlink:href="#block"/><use x="1032" y="858" xlink:href="#block"/><use x="1061" y="858" xlink:href="#block"/><use x="1090" y="858" xlink:href="#block"/><use x="278" y="887" xlink:href="#block"/><use x="307" y="887" xlink:href="#block"/><use x="365" y="887" xlink:href="#block"/><use x="423" y="887" xlink:href="#block"/><use x="452" y="887" xlink:href="#block"/><use x="481" y="887" xlink:href="#block"/><use x="510" y="887" xlink:href="#block"/><use x="539" y="887" xlink:href="#block"/><use x="568" y="887" xlink:href="#block"/><use x="597" y="887" xlink:href="#block"/><use x="771" y="887" xlink:href="#block"/><use x="858" y="887" xlink:href="#block"/><use x="974" y="887" xlink:href="#block"/><use x="1003" y="887" xlink:href="#block"/><use x="1061" y="887" xlink:href="#block"/><use x="1090" y="887" xlink:href="#block"/><use x="46" y="916" xlink:href="#block"/><use x="75" y="916" xlink:href="#block"/><use x="104" y="916" xlink:href="#block"/><use x="133" y="916" xlink:href="#block"/><use x="162" y="916" xlink:href="#block"/><use x="191" y="916" xlink:href="#block"/><use x="220" y="916" xlink:href="#block"/><use x="278" y="916" xlink:href="#block"/><use x="307" y="916" xlink:href="#block"/><use x="336" y="916" xlink:href="#block"/><use x="423" y="916" xlink:href="#block"/><use x="452" y="916" xlink:href="#block"/><use x="568" y="916" xlink:href="#block"/><use x="655" y="916" xlink:href="#block"/><use x="684" y="916" xlink:href="#block"/><use x="713" y="916" xlink:href="#block"/><use x="742" y="916" xlink:href="#block"/><use x="771" y="916" xlink:href="#block"/><use x="829" y="916" xlink:href="#block"/><use x="858" y="916" xlink:href="#block"/><use x="916" y="916" xlink:href="#block"/><use x="974" y="916" xlink:href="#block"/><use x="1003" y="916" xlink:href="#block"/><use x="1061" y="916" xlink:href="#block"/><use x="46" y="945" xlink:href="#block"/><use x="220" y="945" xlink:href="#block"/><use x="278" y="945" xlink:href="#block"/><use x="307" y="945" xlink:href="#block"/><use x="336" y="945" xlink:href="#block"/><use x="365" y="945" xlink:href="#block"/><use x="394" y="945" xlink:href="#block"/><use x="510" y="945" xlink:href="#block"/><use x="597" y="945" xlink:href="#block"/><use x="626" y="945" xlink:href="#block"/><use x="684" y="945" xlink:href="#block"/><use x="771" y="945" xlink:href="#block"/><use x="829" y="945" xlink:href="#block"/><use x="858" y="945" xlink:href="#block"/><use x="974" y="945" xlink:href="#block"/><use x="1003" y="945" xlink:href="#block"/><use x="1061" y="945" xlink:href="#block"/><use x="1090" y="945" xlink:href="#block"/><use x="46" y="974" xlink:href="#block"/><use x="104" y="974" xlink:href="#block"/><use x="133" y="974" xlink:href="#block"/><use x="162" y="974" xlink:href="#block"/><use x="220" y="974" xlink:href="#block"/><use x="278" y="974" xlink:href="#block"/><use x="307" y="974" xlink:href="#block"/><use x="336" y="974" xlink:href="#block"/><use x="394" y="974" xlink:href="#block"/><use x="452" y="974" xlink:href="#block"/><use x="481" y="974" xlink:href="#block"/><use x="539" y="974" xlink:href="#block"/><use x="568" y="974" xlink:href="#block"/><use x="684" y="974" xlink:href="#block"/><use x="858" y="974" xlink:href="#block"/><use x="887" y="974" xlink:href="#block"/><use x="916" y="974" xlink:href="#block"/><use x="945" y="974" xlink:href="#block"/><use x="974" y="974" xlink:href="#block"/><use x="1061" y="974" xlink:href="#block"/><use x="1090" y="974" xlink:href="#block"/><use x="46" y="1003" xlink:href="#block"/><use x="104" y="1003" xlink:href="#block"/><use x="133" y="1003" xlink:href="#block"/><use x="162" y="1003" xlink:href="#block"/><use x="220" y="1003" xlink:href="#block"/><use x="336" y="1003" xlink:href="#block"/><use x="365" y="1003" xlink:href="#block"/><use x="423" y="1003" xlink:href="#block"/><use x="452" y="1003" xlink:href="#block"/><use x="481" y="1003" xlink:href="#block"/><use x="539" y="1003" xlink:href="#block"/><use x="597" y="1003" xlink:href="#block"/><use x="742" y="1003" xlink:href="#block"/><use x="771" y="1003" xlink:href="#block"/><use x="800" y="1003" xlink:href="#block"/><use x="829" y="1003" xlink:href="#block"/><use x="858" y="1003" xlink:href="#block"/><use x="916" y="1003" xlink:href="#block"/><use x="1003" y="1003" xlink:href="#block"/><use x="1061" y="1003" xlink:href="#block"/><use x="1090" y="1003" xlink:href="#block"/><use x="46" y="1032" xlink:href="#block"/><use x="104" y="1032" xlink:href="#block"/><use x="133" y="1032" xlink:href="#block"/><use x="162" y="1032" xlink:href="#block"/><use x="220" y="1032" xlink:href="#block"/><use x="307" y="1032" xlink:href="#block"/><use x="336" y="1032" xlink:href="#block"/><use x="423" y="1032" xlink:href="#block"/><use x="452" y="1032" xlink:href="#block"/><use x="481" y="1032" xlink:href="#block"/><use x="510" y="1032" xlink:href="#block"/><use x="539" y="1032" xlink:href="#block"/><use x="568" y="1032" xlink:href="#block"/><use x="626" y="1032" xlink:href="#block"/><use x="684" y="1032" xlink:href="#block"/><use x="713" y="1032" xlink:href="#block"/><use x="742" y="1032" xlink:href="#block"/><use x="771" y="1032" xlink:href="#block"/><use x="858" y="1032" xlink:href="#block"/><use x="887" y="1032" xlink:href="#block"/><use x="945" y="1032" xlink:href="#block"/><use x="974" y="1032" xlink:href="#block"/><use x="1061" y="1032" xlink:href="#block"/><use x="46" y="1061" xlink:href="#block"/><use x="220" y="1061" xlink:href="#block"/><use x="336" y="1061" xlink:href="#block"/><use x="423" y="1061" xlink:href="#block"/><use x="539" y="1061" xlink:href="#block"/><use x="568" y="1061" xlink:href="#block"/><use x="597" y="1061" xlink:href="#block"/><use x="713" y="1061" xlink:href="#block"/><use x="800" y="1061" xlink:href="#block"/><use x="829" y="1061" xlink:href="#block"/><use x="858" y="1061" xlink:href="#block"/><use x="974" y="1061" xlink:href="#block"/><use x="1003" y="1061" xlink:href="#block"/><use x="1032" y="1061" xlink:href="#block"/><use x="1090" y="1061" xlink:href="#block"/><use x="46" y="1090" xlink:href="#block"/><use x="75" y="1090" xlink:href="#block"/><use x="104" y="1090" xlink:href="#block"/><use x="133" y="1090" xlink:href="#block"/><use x="162" y="1090" xlink:href="#block"/><use x="191" y="1090" xlink:href="#block"/><use x="220" y="1090" xlink:href="#block"/><use x="336" y="1090" xlink:href="#block"/><use x="365" y="1090" xlink:href="#block"/><use x="510" y="1090" xlink:href="#block"/><use x="539" y="1090" xlink:href="#block"/><use x="568" y="1090" xlink:href="#block"/><use x="597" y="1090" xlink:href="#block"/><use x="684" y="1090" xlink:href="#block"/><use x="771" y="1090" xlink:href="#block"/><use x="800" y="1090" xlink:href="#block"/><use x="887" y="1090" xlink:href="#block"/><use x="945" y="1090" xlink:href="#block"/><use x="974" y="1090" xlink:href="#block"/><use x="1003" y="1090" xlink:href="#block"/><use x="1032" y="1090" xlink:href="#block"/><use x="1061" y="1090" xlink:href="#block"/><use x="1090" y="1090" xlink:href="#block"/></svg>
